<?xml version="1.0" encoding="UTF-8"?>
<svg width="16px" height="16px" viewBox="0 0 16 16" version="1.1" xmlns="http://www.w3.org/2000/svg" xmlns:xlink="http://www.w3.org/1999/xlink">
    <defs>
        <linearGradient x1="50%" y1="3.80690029%" x2="50%" y2="100%" id="linearGradient-1">
            <stop stop-color="#000000" offset="0%"></stop>
            <stop stop-color="#FF8700" offset="100%"></stop>
        </linearGradient>
    </defs>
    <g id="Extension" stroke="none" stroke-width="1" fill="none" fill-rule="evenodd">
        <g id="2" fill="url(#linearGradient-1)" fill-rule="nonzero">
            <rect id="Rectangle" x="0" y="0" width="16" height="16"></rect>
        </g>
        <g id="1" transform="translate(1.000000, 1.000000)">
            <path d="M13.7780651,3.60228546 L7.16629378,0.0424092087 C7.06052055,-0.0141364029 6.93806285,-0.0141364029 6.83260442,0.0424092087 L0.221934904,3.60228546 C0.0864129518,3.67506341 0,3.8300733 0,4.00042365 C0,4.17006048 0.0864129518,4.324892 0.221934904,4.3980267 L6.83260442,7.95736782 C6.88533363,7.98555144 6.94231267,8 6.9992917,8 C7.05642813,8 7.11356456,7.98555144 7.16629378,7.95736782 L13.7780651,4.3980267 C13.913587,4.324892 14,4.17006048 14,4.00042365 C14,3.8300733 13.913587,3.67506341 13.7780651,3.60228546 Z" id="Path" fill="#FFFFFF"></path>
            <path d="M6.99955423,11 C6.92491115,11 6.8504226,10.9802181 6.7810339,10.9402776 L0.290639968,7.18077852 C0.0367298482,7.03363902 -0.0711394542,6.66381208 0.0492476326,6.35446117 C0.16978926,6.04511026 0.472997815,5.91341946 0.727371557,6.06018217 L6.99924515,9.69307718 L13.2728187,6.06018217 C13.5261107,5.91323106 13.8300919,6.04454506 13.9506335,6.35446117 C14.0711752,6.66400048 13.9634604,7.03363902 13.7092412,7.18077852 L7.21792003,10.9402776 C7.1488404,10.9800297 7.07419732,11 6.99955423,11 Z" id="Path" fill="#E3E3E3"></path>
            <path d="M6.99947365,14 C6.92483143,14 6.85034374,13.9802196 6.78095583,13.9402821 L0.290636622,10.1812547 C0.0367294253,10.0343147 -0.0711386353,9.66395044 0.0492470656,9.35443446 C0.169787305,9.0445417 0.47299237,8.9132376 0.727363183,9.06017763 L6.99916457,12.6926105 L13.2728204,9.06017763 C13.5265731,8.9132376 13.8300872,9.0445417 13.9506275,9.35443446 C14.0711677,9.66395044 13.9634542,10.0341263 13.709547,10.1812547 L7.21783693,13.9402821 C7.1487581,13.9802196 7.07411588,14 6.99947365,14 Z" id="Path" fill="#FFFFFF"></path>
        </g>
    </g>
</svg>
