<svg xmlns="http://www.w3.org/2000/svg" viewBox="0 0 504 504"><defs><style>.cls-1{fill:#999;}.cls-2{fill:#fff;}.cls-3{fill:#fbd4b6;}.cls-4{fill:#f7cddf;}.cls-5{fill:#f7f7f7;}.cls-6{fill:#bebebe;}</style></defs><title>content-product</title><g id="Ebene_2" data-name="Ebene 2"><g id="theme-product"><rect id="BG_white" data-name="BG white" class="cls-1" width="504" height="504"/><rect class="cls-2" x="21" y="20.84" width="462" height="462"/><rect class="cls-3" x="36" y="36" width="432" height="54"/><rect class="cls-4" x="36" y="414" width="432" height="54"/><rect id="CE" class="cls-5" x="36" y="99" width="432" height="306"/><path class="cls-6" d="M246.73,384.4h0L252,387l5.27-2.6h0l79.08-38.94L387,320.52V171.94l-6.36-2.59-15.08-6.14L252,117,138.44,163.21l-15.08,6.14L117,171.94V320.52l50.65,24.94Zm41.19-173.88L252,228.2l-35.92-17.68L152,179l100-40.68L352,179Zm-25,149V245l102.34-50.39V309.11ZM241.11,245V359.51l-102.34-50.4V194.58Z"/></g></g></svg>