<svg id="Ebene_1" data-name="Ebene 1" xmlns="http://www.w3.org/2000/svg" viewBox="0 0 800 800"><defs><style>.cls-1{fill:#fff;}.cls-2{fill:#999;}.cls-3{fill:#515151;}</style></defs><title>theme-content-timeline</title><path class="cls-1" d="M50,50H750V750H50Z"/><path class="cls-2" d="M50,50V750H750V50Zm50,50H700V700H100Z"/><rect class="cls-3" x="152" y="140" width="100" height="100" rx="14" ry="14"/><rect class="cls-3" x="287" y="140" width="100" height="100" rx="14" ry="14"/><rect class="cls-3" x="420" y="140" width="100" height="100" rx="14" ry="14"/><rect class="cls-3" x="548" y="140" width="100" height="100" rx="14" ry="14"/><rect class="cls-3" x="152" y="280.27" width="100" height="100" rx="14" ry="14"/><rect class="cls-3" x="287" y="280.27" width="100" height="100" rx="14" ry="14"/><rect class="cls-3" x="420" y="280.27" width="100" height="100" rx="14" ry="14"/><rect class="cls-3" x="548" y="280.27" width="100" height="100" rx="14" ry="14"/><rect class="cls-3" x="152" y="422.39" width="100" height="100" rx="14" ry="14"/><rect class="cls-3" x="287" y="422.39" width="100" height="100" rx="14" ry="14"/><rect class="cls-3" x="152" y="562.66" width="100" height="100" rx="14" ry="14"/><rect class="cls-3" x="287" y="562.66" width="100" height="100" rx="14" ry="14"/><circle class="cls-1" cx="530.05" cy="517.41" r="169.67"/><rect class="cls-1" x="361.38" y="364.15" width="50.44" height="155.26" rx="12" ry="12"/><path class="cls-3" d="M675.3,517.41a141.32,141.32,0,0,1-11.54,56.36,143.47,143.47,0,0,1-77.35,77.36,141.31,141.31,0,0,1-56.36,11.53A144.21,144.21,0,0,1,468.21,649a141.82,141.82,0,0,1-49.93-38.68,6.66,6.66,0,0,1-1.23-4.25,5.57,5.57,0,0,1,1.61-3.88L444.57,576a6.8,6.8,0,0,1,4.72-1.7,5.87,5.87,0,0,1,4.35,2.27,96.21,96.21,0,0,0,114,30A95.89,95.89,0,0,0,619.22,555a95.82,95.82,0,0,0,0-75.08,95.92,95.92,0,0,0-51.63-51.63,94.24,94.24,0,0,0-37.54-7.66,96.17,96.17,0,0,0-35.56,6.71,94.19,94.19,0,0,0-30.26,19.2l25.91,26.1q5.87,5.67,2.65,13.05-3.21,7.56-11.16,7.56H396.91a12.26,12.26,0,0,1-12.11-12.1V396.37q0-7.94,7.57-11.16,7.36-3.21,13.05,2.65L430,412.26a146.81,146.81,0,0,1,46.24-29.6,143.27,143.27,0,0,1,110.17,1,143.49,143.49,0,0,1,77.35,77.35A141.36,141.36,0,0,1,675.3,517.41Zm-121-54.47v84.73a5.82,5.82,0,0,1-6,6.05H487.69a5.84,5.84,0,0,1-6.06-6.05v-12.1a5.84,5.84,0,0,1,6.06-6.05h42.36V462.94a5.82,5.82,0,0,1,6.05-6.05h12.11a5.82,5.82,0,0,1,6,6.05Z"/></svg>