<svg xmlns="http://www.w3.org/2000/svg" viewBox="0 0 960 960"><defs><style>.cls-1{fill:none;}.cls-2{fill:#d63e3e;}.cls-3,.cls-6{opacity:0.43;}.cls-4{fill:#fff;}.cls-5,.cls-6{fill:#ccc;}</style></defs><title>theme-backend-realurl-reset</title><g id="Ebene_2" data-name="Ebene 2"><g id="Scene"><g id="Icon"><rect class="cls-1" width="960" height="960"/><g id="realurl_particles" data-name="realurl particles"><circle class="cls-2" cx="474.86" cy="510.04" r="23.07"/><circle class="cls-2" cx="542.16" cy="583.2" r="23.07"/><circle class="cls-2" cx="415.92" cy="583.2" r="23.07"/><circle class="cls-2" cx="473.2" cy="668.08" r="23.07"/><circle class="cls-2" cx="565.24" cy="668.08" r="23.07"/><circle class="cls-2" cx="392.84" cy="714.23" r="23.07"/><circle class="cls-2" cx="451.78" cy="804.95" r="23.07"/><circle class="cls-2" cx="521" cy="804.95" r="23.07"/><circle class="cls-2" cx="595.63" cy="752.97" r="23.07"/></g><g id="broken_pill" data-name="broken pill"><g id="left_half_of_pill" data-name="left half of pill" class="cls-3"><path class="cls-4" d="M60.29,375A113.36,113.36,0,0,1,200.21,196.57L462.16,402,322.24,580.42Z"/><path class="cls-5" d="M130.46,158.6v27.88a98.13,98.13,0,0,1,61.14,21.05l251,196.86L319.87,560.84,68.89,364a99.3,99.3,0,0,1,61.57-177.5V158.6m0,0A127.26,127.26,0,0,0,30.09,207.2h0C-13.12,262.29-3.4,342.71,51.69,385.92L324.61,600,481.73,399.66,208.81,185.6a126.54,126.54,0,0,0-78.35-27Z"/></g><g id="right_halft_of_pill" data-name="right halft of pill"><path class="cls-6" d="M643.83,596,911.29,375.18C965.28,330.6,973,250,928.4,196h0c-44.58-54-125.22-61.68-179.21-17.1L481.73,399.71Z"/><path class="cls-4" d="M643.66,348.48l-13.54-16.39L798.06,193.4s18.52-19.87,38-1c25.9,25.21-24.42,17.35-24.42,17.35Z"/></g></g></g></g></g></svg>