<?xml version="1.0" encoding="utf-8"?>
<!-- Generator: Adobe Illustrator 22.1.0, SVG Export Plug-In . SVG Version: 6.00 Build 0)  -->
<svg version="1.1" id="Ebene_1" xmlns="http://www.w3.org/2000/svg" xmlns:xlink="http://www.w3.org/1999/xlink" x="0px" y="0px"
	 viewBox="0 0 800 800" style="enable-background:new 0 0 800 800;" xml:space="preserve">
<style type="text/css">
	.st0{fill:#FFFFFF;}
	.st1{fill:#999999;}
	.st2{fill:url(#Prostokąt_x0020_3_1_);}
	.st3{fill:#BCBCBC;}
	.st4{fill:url(#SVGID_1_);}
</style>
<path class="st0" d="M50,50h700v700H50V50z"/>
<path class="st1" d="M50,50v700h700V50H50z M100,100h600v600H100V100z"/>
<g id="Warstwa_x0020_1">
	
		<linearGradient id="Prostokąt_x0020_3_1_" gradientUnits="userSpaceOnUse" x1="10889.1982" y1="-4354.6504" x2="10889.1982" y2="-21993.8633" gradientTransform="matrix(2.834594e-02 0 0 -2.834594e-02 91.3355 26.5634)">
		<stop  offset="0" style="stop-color:#DE1A00"/>
		<stop  offset="1" style="stop-color:#BE0519"/>
	</linearGradient>
	<rect id="Prostokąt_x0020_3" x="150" y="150" class="st2" width="500" height="500"/>
	<path class="st3" d="M346.3,457.7h-15.9v-9.2c-6,6.9-11.2,10.4-16.7,10.4c-5,0-8.3-2.3-10-6.5c-1-2.5-1.7-6.5-1.7-12.3V373h15.9v63
		c0,3.6,0,5.1,0,5.9c0.3,2.3,1.4,3.2,3.3,3.2c3,0,5.8-2.7,9.2-7.4v-64.6h15.9v84.8V457.7z M274.1,432.6c0.8,8.4-1.7,12.6-6.7,12.6
		s-7.5-4.2-6.7-12.6V399c-0.8-8.4,1.7-12.3,6.7-12.3s7.6,3.9,6.7,12.3V432.6z M290,400.6c0-9.1-1.8-15.9-5.1-20.2
		c-4.3-5.8-11-8.2-17.6-8.2c-7.6,0-13.4,2.4-17.6,8.2c-3.2,4.3-5.1,11.2-5.1,20.2v30.1c0,9,1.6,15.2,4.8,19.5
		c4.3,5.8,11.1,8.9,17.9,8.9c6.7,0,13.7-3.1,18-8.9c3.2-4.3,4.7-10.5,4.7-19.5v-30.2V400.6z M227,411.6v46.1h-16.8v-46.1
		c0,0-17.4-56.6-21-67.1h17.6l11.8,44.2l11.8-44.2H248L227,411.6z M510.3,386.4c-2.5,0-5.4,1.3-8,3.8v50.9c2.5,2.5,5.4,3.8,8,3.8
		c4.4,0,6.3-3.2,6.3-11.6v-36.1c0-8.4-2-10.8-6.3-10.8V386.4z M573,396.5c0-7.7-2-10-7-10c-5.1,0-7.3,2.2-7.3,10v9.3H573v-9.1V396.5
		z M566,444.9c3.7,0,5.9-2.1,6.8-6.1c0.1-0.8,0.1-4.5,0.1-10.5h15.9v2.4c0,4.8-0.5,8.4-0.6,9.9c-0.5,3.3-1.7,6.5-3.6,9.1
		c-4.2,6.1-10.5,9.1-18.3,9.1c-8,0-14-2.9-18.5-8.7c-3.2-4.2-5.3-10.5-5.3-19.4v-29.4c0-9,1.8-15.9,5.1-20.2
		c4.4-5.8,10.5-8.8,18.2-8.8c7.6,0,13.7,3,18,8.8c3.2,4.3,5,10.8,5,19.7v17.2h-30.2v15.1C558.7,441,560.8,444.9,566,444.9z
		 M609.9,413.8v-21c-0.1-19.8-2.5-39.3-2.5-39.3s-2.4-17.2-9.9-24.8c-9.6-9.9-20.2-10-25.1-10.6c-35.1-2.5-87.7-2.5-87.7-2.5h-0.1
		c0,0-52.6,0-87.7,2.5c-4.8,0.6-15.6,0.6-25.1,10.6c-7.5,7.6-9.9,24.8-9.9,24.8s-2.5,20.2-2.5,40.4v18.9c0,20.2,2.5,40.4,2.5,40.4
		s2.4,17.2,9.9,24.8c9.6,9.9,22,9.6,27.7,10.6c20.1,2,85.2,2.5,85.2,2.5l0,0c1.6,0,53.2-0.1,87.7-2.7c4.8-0.6,15.6-0.6,25.1-10.6
		c7.5-7.6,9.9-24.8,9.9-24.8s2.4-19.5,2.5-39.3V413.8z M532.6,432.5c0,7.7-0.7,13.3-1.7,16.8c-2.1,6.2-6.5,9.5-12.5,9.5
		c-5.4,0-11-3.2-16-9.6v8.4h-15.1V345.2h15.1v36.7c5-6,10.5-9.5,16-9.5c6,0,10.1,3.5,12.1,9.8c1,3.3,2.1,8.8,2.1,16.7V432.5z
		 M474.7,457.6h-15.9v-9.2c-6,6.9-11.2,10.4-16.7,10.4c-5,0-8.3-2.3-10-6.5c-1-2.5-1.7-6.5-1.7-12.3v-66.3h15.9v62.2
		c0,3.6,0,5.1,0,5.9c0.3,2.3,1.4,3.2,3.3,3.2c3,0,5.8-2.7,9.2-7.4v-63.8h15.9v84V457.6z M414.2,457.6h-16.8v-96.5h-17.6v-15.9h52.9
		v15.9h-18.5V457.6z"/>
	
		<linearGradient id="SVGID_1_" gradientUnits="userSpaceOnUse" x1="10889.1982" y1="-16271.2314" x2="10889.1982" y2="-10078.1787" gradientTransform="matrix(2.834594e-02 0 0 -2.834594e-02 91.3355 26.5634)">
		<stop  offset="0" style="stop-color:#F8F7F8"/>
		<stop  offset="0.2706" style="stop-color:#FBFAFB"/>
		<stop  offset="1" style="stop-color:#FEFEFE"/>
	</linearGradient>
	<path class="st4" d="M346.8,454.3h-15.9V445c-6,6.9-11.2,10.4-16.7,10.4c-5,0-8.3-2.3-10-6.5c-1-2.5-1.7-6.5-1.7-12.3v-67.1h15.9
		v63c0,3.6,0,5.1,0,5.9c0.3,2.3,1.4,3.2,3.3,3.2c3,0,5.8-2.7,9.2-7.4v-64.6h15.9v84.8V454.3z M274.6,429.1
		c0.8,8.4-1.7,12.6-6.7,12.6s-7.5-4.2-6.7-12.6v-33.6c-0.8-8.4,1.7-12.3,6.7-12.3s7.6,3.9,6.7,12.3V429.1z M290.5,397.2
		c0-9.1-1.8-15.9-5.1-20.2c-4.3-5.8-11-8.2-17.6-8.2c-7.6,0-13.4,2.4-17.6,8.2c-3.2,4.3-5.1,11.2-5.1,20.2v30.1
		c0,9,1.6,15.2,4.8,19.5c4.3,5.8,11.1,8.9,17.9,8.9c6.7,0,13.7-3.1,18-8.9c3.2-4.3,4.7-10.5,4.7-19.5v-30.2V397.2z M227.5,408.1
		v46.1h-16.8v-46.1c0,0-17.4-56.6-21-67.1h17.6l11.8,44.2l11.8-44.2h17.6L227.5,408.1z M510.8,383c-2.5,0-5.4,1.3-8,3.8v50.9
		c2.5,2.5,5.4,3.8,8,3.8c4.4,0,6.3-3.2,6.3-11.6v-36.1c0-8.4-2-10.8-6.3-10.8V383z M573.4,393c0-7.7-2-10-7-10
		c-5.1,0-7.3,2.2-7.3,10v9.3h14.3v-9.1V393z M566.5,441.5c3.7,0,5.9-2.1,6.8-6.1c0.1-0.8,0.1-4.5,0.1-10.5h15.9v2.4
		c0,4.8-0.5,8.4-0.6,9.9c-0.5,3.3-1.7,6.5-3.6,9.1c-4.2,6.1-10.5,9.1-18.3,9.1c-8,0-14-2.9-18.5-8.7c-3.2-4.2-5.3-10.5-5.3-19.4V398
		c0-9,1.8-15.9,5.1-20.2c4.4-5.8,10.5-8.8,18.2-8.8c7.6,0,13.7,3,18,8.8c3.2,4.3,5,10.8,5,19.7v17.2h-30.2v15.1
		C559.1,437.5,561.3,441.5,566.5,441.5z M610.3,410.3v-21c-0.1-19.8-2.5-39.3-2.5-39.3s-2.4-17.2-9.9-24.8
		c-9.6-9.9-20.2-10-25.1-10.6c-35.1-2.5-87.7-2.5-87.7-2.5h-0.1c0,0-52.6,0-87.7,2.5c-4.8,0.6-15.6,0.6-25.1,10.6
		c-7.5,7.6-9.9,24.8-9.9,24.8s-2.5,20.2-2.5,40.4v18.9c0,20.2,2.5,40.4,2.5,40.4s2.4,17.2,9.9,24.8c9.6,9.9,22,9.6,27.7,10.6
		c20.1,2,85.2,2.5,85.2,2.5l0,0c1.6,0,53.2-0.1,87.7-2.7c4.8-0.6,15.6-0.6,25.1-10.6c7.5-7.6,9.9-24.8,9.9-24.8s2.4-19.5,2.5-39.3
		V410.3z M533,429c0,7.7-0.7,13.3-1.7,16.8c-2.1,6.2-6.5,9.5-12.5,9.5c-5.4,0-11-3.2-16-9.6v8.4h-15.1V341.7h15.1v36.7
		c5-6,10.5-9.5,16-9.5c6,0,10.1,3.5,12.1,9.8c1,3.3,2.1,8.8,2.1,16.7V429z M475.1,454.2h-15.9v-9.2c-6,6.9-11.2,10.4-16.7,10.4
		c-5,0-8.3-2.3-10-6.5c-1-2.5-1.7-6.5-1.7-12.3v-66.3h15.9v62.2c0,3.6,0,5.1,0,5.9c0.3,2.3,1.4,3.2,3.3,3.2c3,0,5.8-2.7,9.2-7.4
		v-63.8h15.9v84V454.2z M414.7,454.2h-16.8v-96.5h-17.6v-15.9h52.9v15.9h-18.5V454.2z"/>
</g>
</svg>
