<svg xmlns="http://www.w3.org/2000/svg" xmlns:xlink="http://www.w3.org/1999/xlink" viewBox="0 0 956.56 956.56"><defs><style>.cls-1{fill:#59f;}.cls-2{fill:#aad400;}.cls-3{opacity:0.2;isolation:isolate;}.cls-4{fill:#888;}.cls-5{fill:none;}.cls-6{fill:#aaa;}</style><symbol id="World" data-name="World" viewBox="0 0 258.15 258.15"><circle class="cls-1" cx="129.08" cy="129.08" r="129.08"/><path class="cls-2" d="M241.58,119a113.48,113.48,0,0,0-57.2-88.42c-1.48,1.57-1.88.65-1.88,2.21-4.47,1.57-10.43-1.56-14.9-3.13a52.15,52.15,0,0,0-34.23-1.56c-4.47,1.56-14.88,3.13-10.43,12.52,3,4.71,10.41,9.41,17.87,3.15,3-3.14,6-7.83,10.4-3.14a6,6,0,0,1,1.5,4.72c-1.5,4.68-6,6.26-10.42,6.26-6,1.56-11.94,0-17.88,1.56s-14.89,3.13-14.89,11c0,9.36-3,10.94-10.44,12.51-6,0-8.92,3.13-6,9.39,1.5,4.68,6,4.68,9,3.13C114,83,124.4,67.3,137.79,86.08l3-1.57c3-12.52,6-4.68,8.94,0l4.46,4.68C172,72,167.56,97,173.53,101.71c-11.94-3.13-25.34,9.39-35.74,1.57-17.86-14.07-29.77-7.81-46.15,6.26-13.39,11-16.37,25-13.39,37.56,4.46,15.65,20.82,17.21,34.24,14.08,4.45-1.58,13.39-1.58,13.39,1.55-3,14.09,13.39,23.48,7.42,39.11-4.45,12.52,3,28.17,13.39,32.87s19.37-7.83,23.85-18.78c1.49-1.57,0-4.68,1.49-6.26,11.9-15.65,10.42-39.11,25.29-54.76,4.47-4.68,19.37-21.9,7.43-36,28.3-7.83,17.91,20.33,23.84,32.86C233.05,142.4,236,133,239,125.17,240.48,120.49,241.58,119,241.58,119ZM79.83,35.66c4.68-4.94,4.89-5.75,9.59-12.35a108.54,108.54,0,0,0-31,17.74L61.1,43.9H75.19a1.54,1.54,0,0,0,1.56-1.61l1.57-1.66A1.56,1.56,0,0,0,79.88,39l1.55-1.64L83,35.67c-4.68,3.31-4.68,1.67-3.13,0h0ZM59.15,188h0v-4.46L57.6,182c-1.53,0-1.53-1.5-3.07-1.5s-3.06-1.5-4.61-1.5H46.84a1.49,1.49,0,0,1-1.53-1.49c-10.78-6-15.38-16.37-18.46-28.26,0-3-1.54-6-1.54-8.94-1.51-1.5-1.51-3-3.06-4.49-3.07-3-1.52-8.92,1.55-14.87v-3c0-1.5,0-1.5,1.53-3,0-1.45,0-1.45,1.55-3,3.07-6,9.23-10.42,12.29-14.89,1.54-1.49,1.54-1.49,1.54-3V92.72c1.53-1.48,1.53-4.46,3.06-6,0-1.45,1.55-4.45,1.55-5.93,0-3,0-4.47-1.55-7.42-1.55-4.49-2.48-8.36-5.55-11.35-13.84,19.36-22.1,41.08-22.1,66.36a112.7,112.7,0,0,0,39,85.9s1,.42,1-1v-1.52c0-1.48,1.53-1.48,1.53-3,1.55-6,1.55-14.88,1.55-20.82Z"/><path class="cls-3" d="M129.08,258.15C57.91,258.15,0,200.24,0,129.08S57.91,0,129.08,0,258.15,57.91,258.15,129.08,200.24,258.15,129.08,258.15Zm0-242A112.95,112.95,0,1,0,242,129.08,113.08,113.08,0,0,0,129.08,16.13Z"/></symbol></defs><title>apps-pagetree-contains-landingpages</title><g id="Ebene_2" data-name="Ebene 2"><g id="Icons"><g id="Folder_Landingpages" data-name="Folder Landingpages"><path class="cls-4" d="M0,119.57V837H758.67V227.78h-455L236.15,119.57Z"/><rect class="cls-5" width="956.56" height="956.56"/><use width="258.15" height="258.15" transform="translate(143.07 307.62)" xlink:href="#World"/><use width="258.15" height="258.15" transform="translate(403.76 271.72)" xlink:href="#World"/><use width="258.15" height="258.15" transform="translate(668.05 204.16)" xlink:href="#World"/><use width="258.15" height="258.15" transform="translate(482.31 22.27)" xlink:href="#World"/><path class="cls-6" d="M493.82,363.49,391.59,442.41H151.26L0,837H774.81l181.75-473.5Z"/><rect class="cls-5" width="956.56" height="956.56"/><use width="258.15" height="258.15" transform="translate(225.87 61.57)" xlink:href="#World"/></g></g></g></svg>