<svg id="Ebene_1" data-name="Ebene 1" xmlns="http://www.w3.org/2000/svg" viewBox="0 0 800 800"><defs><style>.cls-1{fill:#fff;}.cls-2{fill:#999;}.cls-3{fill:#e8e8e8;}.cls-4{fill:#515151;}.cls-5{fill:#f9f9f9;}</style></defs><title>theme-content-map</title><path class="cls-1" d="M50,50H750V750H50Z"/><path class="cls-2" d="M50,50V750H750V50Zm50,50H700V700H100Z"/><g id="_104-Map" data-name=" 104-Map"><polygon class="cls-3" points="163.99 557.24 163.99 184.62 309.33 242.75 309.33 615.38 163.99 557.24"/><path class="cls-4" d="M173,197.91l127.34,50.94V602.09L173,551.15V197.91m-18-26.58v392l163.34,65.33v-392L155,171.33Z"/><polygon class="cls-3" points="490.67 557.24 490.67 184.62 636.01 242.75 636.01 615.38 490.67 557.24"/><path class="cls-4" d="M499.67,197.91,627,248.85V602.09L499.67,551.15V197.91m-18-26.58v392L645,628.67v-392L481.67,171.33Z"/><polygon class="cls-5" points="327.33 242.75 472.67 184.62 472.67 557.24 327.33 615.38 327.33 242.75"/><path class="cls-4" d="M463.67,197.91V551.15L336.33,602.09V248.85l127.34-50.94m18-26.58L318.33,236.66v392l163.34-65.33v-392Z"/></g></svg>