<svg xmlns="http://www.w3.org/2000/svg" xmlns:xlink="http://www.w3.org/1999/xlink" viewBox="0 0 959.04 959.52"><defs><style>.cls-1{fill:#efefef;}.cls-2,.cls-7{fill:#fff;}.cls-2{opacity:0.65;}.cls-2,.cls-3,.cls-9{isolation:isolate;}.cls-3{opacity:0.2;}.cls-4{fill:#999;}.cls-5,.cls-9{fill:none;}.cls-6{fill:#515151;stroke:#636363;stroke-width:24.33px;}.cls-8{fill:#262626;}.cls-9{stroke-width:24.33px;opacity:0.5;stroke:url(#Unbenannter_Verlauf_22);}</style><linearGradient id="Unbenannter_Verlauf_22" x1="1146.31" y1="386.01" x2="1561.11" y2="-150.38" gradientTransform="matrix(0.87, 0, 0, -0.92, -559.78, 917.19)" gradientUnits="userSpaceOnUse"><stop offset="0" stop-color="#fff"/><stop offset="1" stop-color="#fff" stop-opacity="0.34"/></linearGradient></defs><title>theme-pagetree-page-contains-attention</title><g id="Ebene_2" data-name="Ebene 2"><g id="Icons"><g id="Page_Achtung" data-name="Page Achtung"><path class="cls-1" d="M126.27,0V959H845.55V239.76L605.79,0Z"/><path class="cls-2" d="M605.79,238.56V0L845.55,239.76Z"/><path class="cls-3" d="M785.61,299.7V599.4L545.85,299.7Z"/><path class="cls-4" d="M119.4.48v959H838.68V240.24H838l.24-.48L599.4.84l-.48.48V.48Zm59.94,59.94H539V300.18H778.74v599.4H179.34Zm419.58,24.7,155,155.12h-155Z"/><rect class="cls-5" width="959.04" height="959.04"/><g id="g10804"><path id="path9775" class="cls-6" d="M924.19,861.12,657.93,362A41.16,41.16,0,0,0,621.2,340.4c-15.3,0-29.07,9.24-36.73,23.11L324.33,862.67c-6.12,12.33-6.12,29.27,1.53,41.6s19.89,18.49,35.2,18.49H887.47c15.3,0,29.07-7.7,35.2-20C930.31,890.4,930.31,875,924.19,861.12Z"/><g id="g9777"><path id="path9785" class="cls-7" d="M407.15,849.36c-4.46,7.85,0,14.14,7.44,14.14H834c7.44,0,11.9-6.28,7.44-14.14L628.78,431.49c-4.46-7.85-10.41-7.85-13.39,0Z"/></g><g id="g9787"><path id="path9789" class="cls-8" d="M621.48,814.84c-18.13,0-32.08-14-32.08-32.16,0-19.57,12.55-32.16,32.08-32.16s30.69,12.58,32.08,32.16c0,18.18-12.55,32.16-32.08,32.16Zm-19.53-82.49-8.37-160.78h55.79L641,732.35H601.95Z"/></g><path id="path9791" class="cls-9" d="M891.29,844.29,650.43,390.34c-10.26-19.56-13.94-25.83-29.4-25.83-13.3,0-20.23,9.14-29.76,27.6L356.8,845.69c-13.62,25.47-15.06,32.1-8.41,43.31s15.13,10.6,46.47,11.33h464.5c29.18.37,35.74-1.89,41.06-13.1C907.08,876,904.19,867.13,891.29,844.29Z"/></g></g></g></g></svg>