<svg xmlns="http://www.w3.org/2000/svg" viewBox="0 0 960 960"><defs><style>.cls-1{fill:#8e8e8e;}</style></defs><title>apps-pagetree-contains-drafts</title><g id="Ebene_2" data-name="Ebene 2"><g id="Icons"><g id="Drafts"><g id="Layer_1-2" data-name="Layer 1-2"><path class="cls-1" d="M789.93,608.25a59,59,0,0,1,38.57-34.39A865.21,865.21,0,0,0,960,531.11V425.63L828,387.07a59,59,0,0,1-38.1-34.39h0a59,59,0,0,1,3.25-51.58,869.4,869.4,0,0,0,63.66-124.53L782,102.23a829,829,0,0,0-120.81,64.59,59,59,0,0,1-52.51,3.72h0a59,59,0,0,1-33.92-36.71L531.11,0H425.63L387.07,132.43a59,59,0,0,1-33.92,38.1h0a59,59,0,0,1-51.58-2.79,856.38,856.38,0,0,0-125-62.73l-74.81,74.81a817.35,817.35,0,0,0,64.59,120.35,59,59,0,0,1,3.72,52.51h0a59,59,0,0,1-38.57,34.39A894,894,0,0,0,0,429.82V535.3a816.88,816.88,0,0,0,131,39.5,59,59,0,0,1,36.71,86A877.75,877.75,0,0,0,105,783.89l74.81,75.74A849.88,849.88,0,0,0,300.64,795a59,59,0,0,1,52-5.11h0a59,59,0,0,1,34.39,38.57A857.78,857.78,0,0,0,429.82,960H535.3a829.89,829.89,0,0,0,39.5-130.57,59,59,0,0,1,34.85-40h0a59,59,0,0,1,51.58,3.25,855.46,855.46,0,0,0,123.14,62.73l74.81-74.81a815.48,815.48,0,0,0-64.59-120.35,59,59,0,0,1-4.65-51.58ZM479.07,711.87c-128.31,0-232.33-104-232.33-232.33s104-232.33,232.33-232.33,232.33,104,232.33,232.33c.26,127.77-102.71,231.78-230.47,232.8Z"/></g></g></g></g></svg>