<svg id="Ebene_1" data-name="Ebene 1" xmlns="http://www.w3.org/2000/svg" viewBox="0 0 800 800"><defs><style>.cls-1{fill:#fff;}.cls-2{fill:#999;}.cls-3{fill:#14748a;}.cls-4{fill:#515151;}</style></defs><title>theme-content-facts-figures</title><path class="cls-1" d="M50,50H750V750H50Z"/><path class="cls-2" d="M50,50V750H750V50Zm50,50H700V700H100Z"/><g id="_Gruppe_" data-name="&lt;Gruppe&gt;"><g id="_Gruppe_2" data-name="&lt;Gruppe&gt;"><polygon id="_Pfad_" data-name="&lt;Pfad&gt;" class="cls-1" points="205.36 438.66 345.8 438.66 415.95 316.79 345.8 194.91 205.36 194.91 135.21 316.79 205.36 438.66"/><g id="_Gruppe_3" data-name="&lt;Gruppe&gt;"><path id="_Zusammengesetzter_Pfad_" data-name="&lt;Zusammengesetzter Pfad&gt;" class="cls-3" d="M354.37,453.57H196.79L118,316.79,196.79,180H354.37l78.79,136.79Zm-149-14.91H345.73L416,316.79,345.8,194.91H205.36L135.21,316.79Z"/></g></g><path class="cls-4" d="M259,347.93H245.37v25.91H222.26V347.93H174.71V327.26l44.16-73.07h26.5v75.23H259Zm-36.7-18.51V277.56l-30,51.86Z"/><path class="cls-4" d="M275.44,350.17q5.06-12,23.86-25.49,16.32-11.7,21.12-16.77,7.38-7.89,7.38-17.27a19.13,19.13,0,0,0-4.23-12.7q-4.23-5.07-12.09-5.07-10.77,0-14.67,8.06-2.24,4.65-2.65,14.78H271.22q.57-15.36,5.55-24.83,9.47-18,33.59-18,19.06,0,30.35,10.59t11.27,28a38,38,0,0,1-8,23.75q-5.24,6.88-17.18,15.36l-9.46,6.72q-8.88,6.31-12.16,9.14a27,27,0,0,0-5.51,6.56h52.44v20.84H269.89A56.7,56.7,0,0,1,275.44,350.17Z"/><g id="_Gruppe_4" data-name="&lt;Gruppe&gt;"><g id="_Gruppe_5" data-name="&lt;Gruppe&gt;"><polygon id="_Pfad_2" data-name="&lt;Pfad&gt;" class="cls-1" points="450.2 581.09 590.64 581.09 660.79 459.21 590.64 337.34 450.2 337.34 380.05 459.21 450.2 581.09"/><g id="_Gruppe_6" data-name="&lt;Gruppe&gt;"><path id="_Zusammengesetzter_Pfad_2" data-name="&lt;Zusammengesetzter Pfad&gt;" class="cls-3" d="M599.21,596H441.63L362.84,459.21l78.79-136.78H599.21L678,459.21Zm-149-14.91H590.57l70.22-121.88L590.64,337.34H450.2L380.05,459.21Z"/></g></g><path class="cls-4" d="M452.52,480.54a27.21,27.21,0,0,0,2.31,12q4.31,8.72,15.62,8.72a17.24,17.24,0,0,0,12.11-4.78q5.16-4.77,5.16-13.74,0-11.86-9.58-15.86-5.44-2.23-17.17-2.24V447.66q11.47-.17,16-2.24,7.84-3.48,7.85-14.11a15.83,15.83,0,0,0-4-11.21q-4-4.32-11.28-4.32-8.34,0-12.27,5.31t-3.76,14.2h-22a59.54,59.54,0,0,1,3.06-17,38.37,38.37,0,0,1,9.1-13,31.66,31.66,0,0,1,11-6.47,47.3,47.3,0,0,1,15.64-2.24q17.2,0,27.76,8.92t10.55,24a26.5,26.5,0,0,1-6.3,17.93,21.48,21.48,0,0,1-8.28,6.23q3.23,0,9.28,5.56,9,8.38,9,22.92a38.69,38.69,0,0,1-10.55,26.86q-10.56,11.58-31.24,11.58-25.5,0-35.42-16.69-5.22-8.88-5.8-23.25Z"/><path class="cls-4" d="M546.87,480.54a27.21,27.21,0,0,0,2.31,12q4.3,8.72,15.62,8.72a17.24,17.24,0,0,0,12.11-4.78q5.16-4.77,5.16-13.74,0-11.86-9.57-15.86-5.46-2.23-17.18-2.24V447.66q11.48-.17,16-2.24,7.84-3.48,7.85-14.11a15.83,15.83,0,0,0-4-11.21q-4-4.32-11.28-4.32-8.34,0-12.27,5.31t-3.76,14.2h-22a59.54,59.54,0,0,1,3.06-17,38.37,38.37,0,0,1,9.1-13,31.66,31.66,0,0,1,11-6.47,47.35,47.35,0,0,1,15.64-2.24q17.21,0,27.76,8.92t10.55,24a26.5,26.5,0,0,1-6.3,17.93,21.48,21.48,0,0,1-8.28,6.23q3.23,0,9.28,5.56,9,8.38,9,22.92a38.69,38.69,0,0,1-10.55,26.86q-10.56,11.58-31.24,11.58-25.5,0-35.42-16.69-5.22-8.88-5.79-23.25Z"/></g></g></svg>