<?xml version="1.0" encoding="UTF-8"?>
<svg width="16px" height="16px" viewBox="0 0 16 16" version="1.1" xmlns="http://www.w3.org/2000/svg" xmlns:xlink="http://www.w3.org/1999/xlink">
    <g id="theme-pagetree-page-contains-attention" stroke="none" stroke-width="1" fill="none" fill-rule="evenodd">
        <g id="theme-pagetree-page-contains-impress" transform="translate(2.000000, 0.000000)">
            <polygon id="Path" fill="#EFEFEF" points="0 0 0 16 12 16 12 4 8 0"></polygon>
            <polygon id="Path" fill="#FFFFFF" opacity="0.65" points="8 4 8 0 12 4"></polygon>
            <polygon id="Path" fill="#000000" opacity="0.2" points="11 5 11 10 7 5"></polygon>
            <path d="M0,0 L0,16 L12,16 L12,4 L8,0 L0,0 Z M1,1 L7,1 L7,5 L11,5 L11,15 L1,15 L1,1 Z M8,1.4 L10.6,4 L8,4 L8,1.4 Z" id="Shape" fill="#999999" fill-rule="nonzero"></path>
        </g>
        <path d="M7,14 L5,14 L5,12 L7,12 L7,14 Z M7,11 L5,11 L5,5 L7,5 L7,11 Z" id="!" fill="#323232"></path>
    </g>
</svg>
