<svg id="Ebene_1" data-name="Ebene 1" xmlns="http://www.w3.org/2000/svg" viewBox="0 0 800 800"><defs><style>.cls-1{fill:#fff;}.cls-2{fill:#999;}.cls-3{fill:#515151;}.cls-4{fill:#e8a33d;}</style></defs><title>theme-content-gallery</title><path class="cls-1" d="M50,50H750V750H50Z"/><path class="cls-2" d="M50,50V750H750V50Zm50,50H700V700H100Z"/><path class="cls-3" d="M625,268.29l-92.06-4.47-5.36-60.25c-1.11-12.65-12.38-21.5-25.55-20.49L171.72,210.29c-13.17,1.12-22.65,11.76-21.65,24.3l23.66,264c1.11,12.65,12.5,21.5,25.55,20.49L216,517.79l-2.68,51.28c-.67,14.11,10.27,25.53,25,26.32L606.79,613c14.73.67,26.89-9.63,27.67-23.74L650,294.39C650.64,280.39,639.59,269,625,268.29Z"/><path class="cls-1" d="M228.85,274.23l-7.92,151-19.42,27.66L183.66,253.51v-1.12a11.5,11.5,0,0,1,10.6-10.52l291.24-24a10.78,10.78,0,0,1,11.71,8.85c0,.22.34.22.34.45s.33.22.33.45l3,34.49L256.52,250.38C241.8,249.93,229.52,260.23,228.85,274.23Z"/><path class="cls-1" d="M601.66,539.51l-52.11-61.92L518.86,441A16.85,16.85,0,0,0,507,434.81c-4.8-.23-8.37,1.68-12.38,4.59l-18.3,13.33c-3.91,2.35-6.92,3.92-11.05,3.69a15.87,15.87,0,0,1-10.16-4.25c-.89-.9-2.56-2.47-3.9-3.81L403.48,393.6a21,21,0,0,0-15.4-7.5,22.49,22.49,0,0,0-16.51,6.27L258.76,514.2l-7.59,8.29.33-7.62,7.59-144.34,3.68-70.43V299a13.1,13.1,0,0,1,13.28-10.08l227.86,11,32,1.57L601,304.58c6.47.33,11.49,5.26,11.6,11.42,0,.22.34.33.34.56s.33.33.33.56Z"/><circle class="cls-4" cx="531.96" cy="354.37" r="40.44"/></svg>