<svg xmlns="http://www.w3.org/2000/svg" viewBox="0 0 959.52 960"><defs><style>.cls-1{fill:#efefef;}.cls-2,.cls-9{fill:#fff;}.cls-2{opacity:0.65;}.cls-2,.cls-3{isolation:isolate;}.cls-3,.cls-6{opacity:0.2;}.cls-4{fill:#999;}.cls-5{fill:none;}.cls-7{fill:#231f20;}.cls-8{fill:#e0e0d1;}</style></defs><title>apps-pagetree-page-contains-envelope</title><g id="Ebene_2" data-name="Ebene 2"><g id="Icons"><g id="Page_Envelope" data-name="Page Envelope"><path class="cls-1" d="M126.33,0V959.52H846V239.88L606.09,0Z"/><path class="cls-2" d="M606.09,238.68V0L846,239.88Z"/><path class="cls-3" d="M786,299.85V599.7L546.12,299.85Z"/><path class="cls-4" d="M119.46.48V960H839.1V240.36h-.72l.24-.48L599.7.84l-.48.48V.48Zm60,60H539.25V300.33H779.13V900H179.43ZM599.22,85.16,754.3,240.36H599.22Z"/><rect class="cls-5" width="959.52" height="959.52"/><g class="cls-6"><path class="cls-7" d="M917.65,784.67A65.31,65.31,0,0,1,852.35,850H330a65.32,65.32,0,0,1-65.3-65.33V458A65.32,65.32,0,0,1,330,392.66h522.4A65.31,65.31,0,0,1,917.65,458Z"/></g><path class="cls-8" d="M917.65,752a65.31,65.31,0,0,1-65.3,65.33H330A65.32,65.32,0,0,1,264.65,752V425.33A65.32,65.32,0,0,1,330,360h522.4a65.31,65.31,0,0,1,65.3,65.34Z"/><g class="cls-6"><path class="cls-7" d="M648.68,559c-31.63-35.06-83.4-35.06-115,0l-251.84,213a92.94,92.94,0,0,0-7.53,9.55c11.44,21.33,32,35.72,55.68,35.72h522.4c23.69,0,44.25-14.39,55.69-35.72a95.15,95.15,0,0,0-7.53-9.55Z"/></g><path class="cls-8" d="M648.68,588.66c-31.63-31-83.4-31-115,0L281.8,777.25a85,85,0,0,0-7.53,8.44A65,65,0,0,0,330,817.33h522.4A65,65,0,0,0,908,785.71a85,85,0,0,0-7.53-8.44Z"/><g class="cls-6"><path class="cls-7" d="M274.27,395.71C285.71,374.38,306.27,360,330,360h522.4C876,360,896.6,374.38,908,395.71a96.37,96.37,0,0,1-7.53,9.56l-251.83,213c-31.63,35.05-83.4,35.05-115,0Z"/></g><path class="cls-9" d="M533.63,588.66c31.63,31,83.4,31,115,0L900.51,400.07a85,85,0,0,0,7.53-8.44A65,65,0,0,0,852.35,360H330a65,65,0,0,0-55.68,31.62,86.22,86.22,0,0,0,7.53,8.45Z"/></g></g></g></svg>