<svg id="Ebene_1" data-name="Ebene 1" xmlns="http://www.w3.org/2000/svg" xmlns:xlink="http://www.w3.org/1999/xlink" viewBox="0 0 800 800"><defs><style>.cls-1{fill:#fff;}.cls-2{fill:#999;}.cls-3{fill:url(#Unbenannter_Verlauf);}.cls-4{fill:url(#Unbenannter_Verlauf_2);}.cls-5{fill:url(#Unbenannter_Verlauf-2);}</style><linearGradient id="Unbenannter_Verlauf" x1="-628.35" y1="-7034.9" x2="-628.35" y2="10604.31" gradientTransform="translate(417.81 349.41) scale(0.03)" gradientUnits="userSpaceOnUse"><stop offset="0" stop-color="#de1a00"/><stop offset="1" stop-color="#be0519"/></linearGradient><linearGradient id="Unbenannter_Verlauf_2" x1="-628.35" y1="6576.01" x2="-628.35" y2="-2986.25" gradientTransform="translate(417.81 349.41) scale(0.03)" gradientUnits="userSpaceOnUse"><stop offset="0" stop-color="#f8f7f8"/><stop offset="0.27" stop-color="#fbfafb"/><stop offset="1" stop-color="#fefefe"/></linearGradient><linearGradient id="Unbenannter_Verlauf-2" x1="364.31" y1="301.33" x2="364.31" y2="122.61" gradientTransform="translate(628.78 35.69) rotate(90)" xlink:href="#Unbenannter_Verlauf"/></defs><title>theme-content-youtube</title><path class="cls-1" d="M50,50H750V750H50Z"/><path class="cls-2" d="M50,50V750H750V50Zm50,50H700V700H100Z"/><rect id="Prostokąt_3" class="cls-3" x="150" y="150" width="500" height="500"/><path class="cls-4" d="M593.44,416.14V383.71a591.39,591.39,0,0,0-3.86-60.7s-3.71-26.57-15.29-38.3c-14.83-15.29-31.2-15.45-38.76-16.37-54.21-3.87-135.45-3.87-135.45-3.87h-.16s-81.24,0-135.45,3.87c-7.41.92-24.09.92-38.76,16.37-11.58,11.73-15.29,38.3-15.29,38.3a582.39,582.39,0,0,0-3.86,62.39v29.2A582.39,582.39,0,0,0,210.42,477s3.71,26.57,15.29,38.3c14.83,15.29,34,14.83,42.78,16.37,31,3.09,131.59,3.87,131.59,3.87h0c2.47,0,82.16-.16,135.45-4.17,7.41-.93,24.09-.93,38.76-16.38,11.58-11.73,15.29-38.3,15.29-38.3A591.06,591.06,0,0,0,593.44,416Z"/><polygon class="cls-5" points="506.36 400 327.64 296.82 327.64 503.18 506.36 400"/></svg>