<svg xmlns="http://www.w3.org/2000/svg" viewBox="0 0 960 959.52"><defs><style>.cls-1{fill:none;}.cls-2{fill:#efefef;}.cls-3{fill:#fff;opacity:0.65;}.cls-3,.cls-4,.cls-7{isolation:isolate;}.cls-4{opacity:0.2;}.cls-5{fill:#999;}.cls-6{fill:#7e86dc;}.cls-7{opacity:0.43;}</style></defs><title>theme-pagetree-page-contains-news</title><g id="Ebene_2" data-name="Ebene 2"><g id="Icons"><g id="Page_News" data-name="Page News"><rect class="cls-1" y="0.48" width="958.56" height="958.56"/><path class="cls-2" d="M127.23,0V959H846.51V239.76L606.75,0Z"/><path class="cls-3" d="M606.75,238.56V0L846.51,239.76Z"/><path class="cls-4" d="M786.57,299.7V599.4L546.81,299.7Z"/><path class="cls-5" d="M120.36.48v959H839.64V240.24h-.72l.24-.48L600.36.84l-.48.48V.48ZM180.3,60.42H539.94V300.18H779.7v599.4H180.3Zm419.58,24.7,155,155.12h-155Z"/><rect class="cls-1" x="0.96" width="959.04" height="959.04"/><path class="cls-6" d="M910,424.08V842.46H240.58V340.4H533.45l54.39,83.68Z"/><path class="cls-7" d="M910,465.91H587.84l-54.39,83.68H240.58V424.08H910Z"/></g></g></g></svg>