<svg xmlns="http://www.w3.org/2000/svg" viewBox="0 0 959.04 959.52"><defs><style>.cls-1{fill:#efefef;}.cls-2{fill:#fff;opacity:0.65;}.cls-2,.cls-3{isolation:isolate;}.cls-3{opacity:0.2;}.cls-4{fill:#999;}.cls-5{fill:#515151;}.cls-6{fill:none;}</style></defs><title>theme-pagetree-page-contains-impress</title><g id="Ebene_2" data-name="Ebene 2"><g id="Icons"><g id="Page_Impress" data-name="Page Impress"><path class="cls-1" d="M126.27,0V959H845.55V239.76L605.79,0Z"/><path class="cls-2" d="M605.79,238.56V0L845.55,239.76Z"/><path class="cls-3" d="M785.61,299.7V599.4L545.85,299.7Z"/><path class="cls-4" d="M119.4.48v959H838.68V240.24H838l.24-.48L599.4.84l-.48.48V.48Zm59.94,59.94H539V300.18H778.74v599.4H179.34Zm419.58,24.7,155,155.12h-155Z"/><path class="cls-5" d="M280.93,556.23q0-27.36,11.68-45.38a95.92,95.92,0,0,1,29.7-29.37q-14.69-10-22-28a103.24,103.24,0,0,1-7.34-39.38q0-27.36,8.68-46.05t23.69-30a100.2,100.2,0,0,1,35.37-16.69A174.76,174.76,0,0,1,405.08,316q26,0,43.72,3.34t27.7,6v49.39q-17.36-4.66-33.37-8t-43.38-3.34q-14.69,0-24.36,4.67a47.48,47.48,0,0,0-15.68,11.68A44,44,0,0,0,351,395a51.52,51.52,0,0,0-2.67,15.68q0,40.72,42.71,47.39,52.06,8.68,72.42,33.71t20.36,60.4q0,28.71-12.35,46.39a102,102,0,0,1-31,29,60.16,60.16,0,0,1,24,29.37,103.34,103.34,0,0,1,7.34,38q0,26.7-8.68,45.05a81.36,81.36,0,0,1-23.69,30,96.84,96.84,0,0,1-35.37,17,174.83,174.83,0,0,1-44.38,5.34q-26,0-43.72-3.67t-27.7-6.34V734.43q17.35,4,33.37,7t43.38,3q14.67,0,24.36-4.67a47.43,47.43,0,0,0,15.68-11.68,44.81,44.81,0,0,0,8.68-15,46.93,46.93,0,0,0,2.67-14.68q0-19.35-10.34-32t-32.37-16q-52.06-8.67-72.42-34T280.93,556.23Zm145.5-.67a94.22,94.22,0,0,0-2-20.36,36.38,36.38,0,0,0-8-16q-6-7-17.35-12t-30-8.34q-12.69,4.68-21.69,20.36a66.57,66.57,0,0,0-9,33.71A112,112,0,0,0,340,573.25a35.14,35.14,0,0,0,7.34,16q5.66,7,16.69,11.68t29,8a47,47,0,0,0,11-8,83.86,83.86,0,0,0,10.68-12.35,70.34,70.34,0,0,0,8.34-15.68A48.06,48.06,0,0,0,426.43,555.56Z"/><rect class="cls-6" width="959.04" height="959.04"/></g></g></g></svg>