<svg xmlns="http://www.w3.org/2000/svg" xmlns:xlink="http://www.w3.org/1999/xlink" viewBox="0 0 956.56 956.56"><defs><style>.cls-1{fill:#888;}.cls-2{fill:none;}.cls-3{fill:url(#Unbenannter_Verlauf_2);}.cls-4{fill:url(#Unbenannter_Verlauf_2-2);}.cls-5{fill:url(#Unbenannter_Verlauf_3);}.cls-6{fill:url(#Unbenannter_Verlauf_4);}.cls-7{fill:url(#Unbenannter_Verlauf_5);}.cls-8{fill:url(#Unbenannter_Verlauf_12);}.cls-9{fill:#fff;}.cls-10{fill:url(#Unbenannter_Verlauf_13);}.cls-11{fill:url(#Unbenannter_Verlauf_14);}.cls-12{fill:url(#Unbenannter_Verlauf_12-2);}.cls-13{fill:url(#Unbenannter_Verlauf_13-2);}.cls-14{fill:url(#Unbenannter_Verlauf_14-2);}.cls-15{fill:url(#Unbenannter_Verlauf_12-3);}.cls-16{fill:url(#Unbenannter_Verlauf_13-3);}.cls-17{fill:url(#Unbenannter_Verlauf_14-3);}.cls-18{fill:#aaa;}</style><linearGradient id="Unbenannter_Verlauf_2" x1="11253.11" y1="-489.21" x2="11253.11" y2="-675.06" gradientTransform="matrix(0.2, 0, 0, -0.25, -1601.8, 362.02)" gradientUnits="userSpaceOnUse"><stop offset="0.01" stop-color="#dad4d8"/><stop offset="0.14" stop-color="#ddd7db"/><stop offset="0.26" stop-color="#e6e2e5"/><stop offset="0.37" stop-color="#f5f4f5"/><stop offset="0.42" stop-color="#fff"/><stop offset="0.44" stop-color="#faf9fa"/><stop offset="0.51" stop-color="#eae8ea"/><stop offset="0.59" stop-color="#e1dde0"/><stop offset="0.68" stop-color="#dedadd"/><stop offset="0.86" stop-color="#f7f6f8"/><stop offset="1" stop-color="#ccd4e1"/></linearGradient><linearGradient id="Unbenannter_Verlauf_2-2" x1="8169.31" y1="-384.02" x2="8295.36" y2="-384.02" gradientTransform="matrix(0.25, 0, 0, -0.25, -1375.3, 362.02)" xlink:href="#Unbenannter_Verlauf_2"/><radialGradient id="Unbenannter_Verlauf_3" cx="15420.66" cy="-83.29" r="315.7" gradientTransform="matrix(0.18, 0, 0, -0.18, -2098.73, 517.34)" gradientUnits="userSpaceOnUse"><stop offset="0.01" stop-color="#a9d1ef"/><stop offset="0.54" stop-color="#1998d5"/><stop offset="1" stop-color="#0073bb"/></radialGradient><linearGradient id="Unbenannter_Verlauf_4" x1="15471.47" y1="85.87" x2="15470.16" y2="190.05" gradientTransform="matrix(0.18, 0, 0, -0.18, -2101.02, 515.92)" gradientUnits="userSpaceOnUse"><stop offset="0" stop-color="#1998d5"/><stop offset="0.1" stop-color="#209bd6"/><stop offset="0.23" stop-color="#32a3da"/><stop offset="0.39" stop-color="#51b1df"/><stop offset="0.57" stop-color="#7bc4e7"/><stop offset="0.76" stop-color="#b1dcf1"/><stop offset="0.96" stop-color="#f2f9fd"/><stop offset="1" stop-color="#fff"/></linearGradient><linearGradient id="Unbenannter_Verlauf_5" x1="9338.2" y1="374.28" x2="7885.5" y2="212.87" gradientTransform="matrix(0.25, 0, 0, -0.25, -1472.52, 323.12)" gradientUnits="userSpaceOnUse"><stop offset="0.12" stop-color="#0077be"/><stop offset="0.54" stop-color="#99c9eb"/><stop offset="1" stop-color="#0073bb"/></linearGradient><linearGradient id="Unbenannter_Verlauf_12" x1="379.33" y1="1024.94" x2="379.33" y2="894.5" gradientTransform="matrix(1.03, 0, 0, -1.03, 312.78, 1078.04)" gradientUnits="userSpaceOnUse"><stop offset="0" stop-color="#cfd0d2"/><stop offset="0.31" stop-color="#cccdcf"/><stop offset="0.58" stop-color="#c1c2c4"/><stop offset="0.84" stop-color="#afb1b3"/><stop offset="0.99" stop-color="#a0a2a4"/></linearGradient><linearGradient id="Unbenannter_Verlauf_13" x1="-6007.91" y1="615.28" x2="-6004.65" y2="357.79" gradientTransform="matrix(-1.03, 0, 0, 1.03, -5457.38, -462.37)" gradientUnits="userSpaceOnUse"><stop offset="0" stop-color="#b6bec3"/><stop offset="0.12" stop-color="#b9c1c6"/><stop offset="0.23" stop-color="#c4cace"/><stop offset="0.33" stop-color="#d6dadd"/><stop offset="0.42" stop-color="#eff0f1"/><stop offset="0.46" stop-color="#fbfbfb"/><stop offset="0.73" stop-color="#c6c7c9"/><stop offset="0.99" stop-color="#8e9093"/></linearGradient><linearGradient id="Unbenannter_Verlauf_14" x1="-6007.1" y1="549.89" x2="-6007.1" y2="367.28" gradientTransform="matrix(-1.03, 0, 0, 1.03, -5457.38, -462.37)" gradientUnits="userSpaceOnUse"><stop offset="0" stop-color="#ccd4d9"/><stop offset="0.06" stop-color="#dae0e3"/><stop offset="0.17" stop-color="#ebeef0"/><stop offset="0.3" stop-color="#f6f8f9"/><stop offset="0.48" stop-color="#fdfdfe"/><stop offset="0.99" stop-color="#fff"/></linearGradient><linearGradient id="Unbenannter_Verlauf_12-2" x1="379.33" y1="908.99" x2="379.33" y2="778.54" gradientTransform="matrix(1.03, 0, 0, -1.03, 312.78, 1099.57)" xlink:href="#Unbenannter_Verlauf_12"/><linearGradient id="Unbenannter_Verlauf_13-2" x1="-6007.91" y1="731.26" x2="-6004.66" y2="473.82" gradientTransform="matrix(-1.03, 0, 0, 1.03, -5457.38, -440.83)" xlink:href="#Unbenannter_Verlauf_13"/><linearGradient id="Unbenannter_Verlauf_14-2" x1="-6007.1" y1="665.89" x2="-6007.1" y2="483.29" gradientTransform="matrix(-1.03, 0, 0, 1.03, -5457.38, -440.83)" xlink:href="#Unbenannter_Verlauf_14"/><linearGradient id="Unbenannter_Verlauf_12-3" x1="379.33" y1="793.03" x2="379.33" y2="662.61" gradientTransform="matrix(1.03, 0, 0, -1.03, 312.78, 1121.1)" xlink:href="#Unbenannter_Verlauf_12"/><linearGradient id="Unbenannter_Verlauf_13-3" x1="-6007.91" y1="847.2" x2="-6004.66" y2="589.8" gradientTransform="matrix(-1.03, 0, 0, 1.03, -5457.38, -419.3)" xlink:href="#Unbenannter_Verlauf_13"/><linearGradient id="Unbenannter_Verlauf_14-3" x1="-6007.1" y1="781.82" x2="-6007.1" y2="599.26" gradientTransform="matrix(-1.03, 0, 0, 1.03, -5457.38, -419.3)" xlink:href="#Unbenannter_Verlauf_14"/></defs><title>theme-pagetree-folder-contains-records</title><g id="Ebene_2" data-name="Ebene 2"><g id="Icons"><g id="Records"><path class="cls-1" d="M0,119.57V837H758.67V227.78h-455L236.15,119.57Z"/><rect class="cls-2" width="956.56" height="956.56"/><g id="_413-Data_Add" data-name=" 413-Data Add"><rect class="cls-3" x="502.24" y="488.68" width="398.94" height="37.06"/><rect class="cls-4" x="687.01" y="429.37" width="29.39" height="59.3"/><path class="cls-5" d="M729.81,508.44a28.09,28.09,0,1,1-28.08-28.35A28.22,28.22,0,0,1,729.81,508.44Z"/><path class="cls-6" d="M718,494.22c0,6.9-9.37,5.63-18.85,5.63s-15.51,1.27-15.51-5.63,7.69-12.46,17.17-12.46S718,487.34,718,494.22Z"/><rect class="cls-7" x="531.89" y="135.75" width="339.67" height="226.66"/><path class="cls-8" d="M526.66,30.2a24.57,24.57,0,0,0-24.42,24.65v69.07a24.57,24.57,0,0,0,24.42,24.66H876.77a24.58,24.58,0,0,0,24.41-24.66V54.84a24.58,24.58,0,0,0-24.41-24.65H526.66Z"/><path class="cls-9" d="M876.77,35.88H526.69a19,19,0,0,0-18.81,19v6.69a19,19,0,0,1,18.81-19H876.77a18.92,18.92,0,0,1,18.76,19V54.84A18.92,18.92,0,0,0,876.77,35.88Z"/><path class="cls-10" d="M507.88,75.8v48.11a19,19,0,0,0,18.81,19H876.77a18.93,18.93,0,0,0,18.76-19V81.68C799.32,112,672,120.5,507.88,75.8Z"/><path class="cls-11" d="M876.77,35.88H526.69a19,19,0,0,0-18.81,19v21C672,120.5,799.31,112,895.54,81.68V54.84A18.92,18.92,0,0,0,876.77,35.88Z"/><path class="cls-12" d="M526.66,170.6a24.57,24.57,0,0,0-24.42,24.66v69.07A24.56,24.56,0,0,0,526.66,289H876.77a24.57,24.57,0,0,0,24.41-24.66V195.26a24.58,24.58,0,0,0-24.41-24.66H526.66Z"/><path class="cls-9" d="M876.77,176.31H526.69a18.94,18.94,0,0,0-18.81,18.95v6.68A18.93,18.93,0,0,1,526.69,183H876.77a18.91,18.91,0,0,1,18.76,18.94v-6.68A18.91,18.91,0,0,0,876.77,176.31Z"/><path class="cls-13" d="M507.88,216.22v48.11a18.93,18.93,0,0,0,18.81,19H876.77a18.91,18.91,0,0,0,18.76-19V222.09C799.32,252.38,672,260.93,507.88,216.22Z"/><path class="cls-14" d="M876.77,176.31H526.69a18.94,18.94,0,0,0-18.81,18.95v21c164.09,44.71,291.43,36.15,387.66,5.86V195.26A18.91,18.91,0,0,0,876.77,176.31Z"/><path class="cls-15" d="M526.66,311a24.54,24.54,0,0,0-24.42,24.61v69.09a24.53,24.53,0,0,0,24.42,24.63H876.77a24.54,24.54,0,0,0,24.41-24.63V335.66A24.55,24.55,0,0,0,876.77,311Z"/><path class="cls-9" d="M876.77,323.43H526.69a18.93,18.93,0,0,0-18.81,18.93V349a18.94,18.94,0,0,1,18.81-18.93H876.77A18.92,18.92,0,0,1,895.54,349v-6.68A18.91,18.91,0,0,0,876.77,323.43Z"/><path class="cls-16" d="M507.88,356.65v48.1a18.94,18.94,0,0,0,18.81,19H876.77a18.91,18.91,0,0,0,18.76-19V362.53C799.32,392.77,672,401.32,507.88,356.65Z"/><path class="cls-17" d="M876.77,316.75H526.69a18.91,18.91,0,0,0-18.81,18.91v21c164.09,44.68,291.43,36.11,387.66,5.88V335.66A18.89,18.89,0,0,0,876.77,316.75Z"/></g><path class="cls-18" d="M493.82,363.49,391.59,442.41H151.26L0,837H774.81l181.75-473.5Z"/><rect class="cls-2" width="956.56" height="956.56"/></g></g></g></svg>