<svg xmlns="http://www.w3.org/2000/svg" viewBox="0 0 960 960"><defs><style>.cls-1{opacity:0.7;}.cls-2{fill:#59f;}.cls-3{opacity:0.2;isolation:isolate;}.cls-4{fill:#fff;}.cls-5{fill:none;}.cls-6{fill:#515151;}</style></defs><title>theme-content-inheritance-stop</title><g id="Ebene_2" data-name="Ebene 2"><g id="Icons"><g id="CE_Inheritance_Stop_Icon" data-name="CE Inheritance Stop Icon"><g class="cls-1"><path class="cls-2" d="M120,240H480V540H120Z"/><path class="cls-3" d="M120,240V540H480V240ZM420,480H180V300H420Z"/><path class="cls-4" d="M240,360H360v60H240Z"/></g><rect class="cls-3" x="180" y="60" width="60" height="60"/><rect class="cls-3" x="60" y="60" width="60" height="60"/><rect class="cls-3" x="180" y="180" width="60" height="60"/><rect class="cls-5" width="960" height="960"/><rect class="cls-5" x="60" y="60" width="840" height="840"/><g class="cls-1"><path class="cls-2" d="M540,600H900V900H540Z"/><path class="cls-3" d="M540,600V900H900V600ZM840,840H600V660H840Z"/><path class="cls-4" d="M660,720H780v60H660Z"/></g><rect class="cls-3" x="600" y="420" width="60" height="60"/><rect class="cls-3" x="480" y="420" width="60" height="60"/><rect class="cls-3" x="600" y="540" width="60" height="60"/><path class="cls-6" d="M558,861.51a300.57,300.57,0,1,1-.08-601.14h.47A300.57,300.57,0,0,1,558,861.51ZM462.06,731.23A195.46,195.46,0,0,0,728.21,465.08Zm95.35-365.66A194,194,0,0,0,419.83,422.8a195.7,195.7,0,0,0-32.1,234L653.89,390.63a193.43,193.43,0,0,0-95.37-25.06Z"/><path class="cls-4" d="M558.36,271.64a288.3,288.3,0,0,1,204.18,84.76l0,0c112.95,113,112.93,296.12,0,409.07a289.35,289.35,0,0,1-493.9-204.69c0-159.73,129.53-289.19,289.25-289.17h.47M385.57,674.9,672,388.5a205.38,205.38,0,0,0-113.45-34.2h-1.12a205.3,205.3,0,0,0-145.57,60.55c-70.56,70.73-79.31,179.8-26.26,260M558,767.58A205.26,205.26,0,0,0,704.1,707c70.58-70.73,79.33-179.81,26.26-260.06L444,733.37a205.24,205.24,0,0,0,114,34.21m.39-518.49h-.5A312.26,312.26,0,1,0,778.53,340.5l0,0a310.86,310.86,0,0,0-220.13-91.37ZM558,376.85h.55A182.2,182.2,0,0,1,635,393.6L390.73,637.84A184.08,184.08,0,0,1,427.8,430.77a182.75,182.75,0,0,1,129.61-53.92H558ZM481,728.26,725.21,484A184,184,0,0,1,688.14,691.1,184.45,184.45,0,0,1,481,728.26Z"/></g></g></g></svg>