<svg xmlns="http://www.w3.org/2000/svg" viewBox="0 0 960 959.52"><defs><style>.cls-1{fill:none;}.cls-2{fill:#efefef;}.cls-3{fill:#fff;opacity:0.65;}.cls-3,.cls-4{isolation:isolate;}.cls-4{opacity:0.2;}.cls-5{fill:#999;}.cls-6{fill:#515151;}</style></defs><title>theme-pagetree-page-contains-search</title><g id="Ebene_2" data-name="Ebene 2"><g id="Icons"><g id="Page_Search" data-name="Page Search"><rect class="cls-1" y="0.48" width="958.56" height="958.56"/><path class="cls-2" d="M127.23,0V959H846.51V239.76L606.75,0Z"/><path class="cls-3" d="M606.75,238.56V0L846.51,239.76Z"/><path class="cls-4" d="M786.57,299.7V599.4L546.81,299.7Z"/><path class="cls-5" d="M120.36.48v959H839.64V240.24h-.72l.24-.48L600.36.84l-.48.48V.48ZM180.3,60.42H539.94V300.18H779.7v599.4H180.3Zm419.58,24.7,155,155.12h-155Z"/><rect class="cls-1" x="0.96" width="959.04" height="959.04"/><path class="cls-6" d="M687.27,758.49a13.22,13.22,0,0,1-9.4-3.93,13.38,13.38,0,0,1-3.93-9.4,13.66,13.66,0,0,1,3.93-9.46c5-4.93,13.86-4.93,18.79,0a13.33,13.33,0,0,1-9.39,22.79Z"/><path class="cls-6" d="M740.05,811.81a13.42,13.42,0,0,1-13.33-13.33,13.59,13.59,0,0,1,3.87-9.46c5-4.93,13.93-4.93,18.86,0a13.38,13.38,0,0,1,3.93,9.46,13.42,13.42,0,0,1-13.33,13.33Z"/><path class="cls-6" d="M713.39,785.15a13.42,13.42,0,0,1-13.33-13.33,13.59,13.59,0,0,1,3.87-9.46c5-4.93,14-4.93,18.86,0a13.38,13.38,0,0,1,3.93,9.46,13.22,13.22,0,0,1-3.93,9.4A13.39,13.39,0,0,1,713.39,785.15Z"/><path class="cls-6" d="M448.22,739.29c-88,0-159.65-71.61-159.65-159.64S360.19,420,448.22,420s159.65,71.62,159.65,159.65S536.25,739.29,448.22,739.29Zm0-292.63c-73.33,0-133,59.66-133,133s59.66,133,133,133,133-59.66,133-133S521.56,446.66,448.22,446.66Z"/><path class="cls-6" d="M658.83,730.27a13.26,13.26,0,0,1-9.11-3.61l-78.78-73.83a13.33,13.33,0,0,1,18.22-19.45l78.78,73.83a13.33,13.33,0,0,1-9.11,23.05Z"/><path class="cls-6" d="M682.91,874a13.3,13.3,0,0,1-9-3.53L509.23,718.53a13.33,13.33,0,1,1,18.08-19.59l154.91,143,18.84-20.09A13.33,13.33,0,1,1,720.51,840l-27.88,29.74A13.29,13.29,0,0,1,682.91,874Z"/></g></g></g></svg>