<?xml version="1.0" encoding="utf-8"?>
<!-- Generator: Adobe Illustrator 20.1.0, SVG Export Plug-In . SVG Version: 6.00 Build 0)  -->
<svg version="1.1" id="Ebene_1" xmlns="http://www.w3.org/2000/svg" xmlns:xlink="http://www.w3.org/1999/xlink" x="0px" y="0px"
	 viewBox="0 0 960 960" style="enable-background:new 0 0 960 960;" xml:space="preserve">
<g>
	<path d="M723.4,661.9c-14.2,4.2-25.5,5.8-40.4,5.8c-121.8,0-300.6-425.6-300.6-567.2c0-52.1,12.3-69.5,29.8-84.5
		C263.1,33.4,84.3,88.1,27.1,157.6c-12.4,17.4-19.9,44.7-19.9,79.5c0,221.1,236,722.8,402.5,722.8
		C486.7,960,616.6,833.4,723.4,661.9"/>
	<path d="M645.7,1.2c154,0,308.1,24.8,308.1,111.8c0,176.4-111.9,390.1-168.9,390.1C683,503,556.3,219.8,556.3,78.1
		C556.3,13.5,581.1,1.2,645.7,1.2"/>
</g>
</svg>
