<?xml version="1.0" encoding="utf-8"?>
<!-- Generator: Adobe Illustrator 16.0.0, SVG Export Plug-In . SVG Version: 6.00 Build 0)  -->
<!DOCTYPE svg PUBLIC "-//W3C//DTD SVG 1.1//EN" "http://www.w3.org/Graphics/SVG/1.1/DTD/svg11.dtd">
<svg version="1.1" id="Layer_2" xmlns="http://www.w3.org/2000/svg" xmlns:xlink="http://www.w3.org/1999/xlink" x="0px" y="0px"
	 width="32px" height="32px" viewBox="0 0 32 32" enable-background="new 0 0 32 32" xml:space="preserve">
<g>
	<g>
		<path d="M16,0C7.163,0,0,7.164,0,16c0,8.837,7.163,16,16,16s16-7.163,16-16C32,7.164,24.837,0,16,0z M24.821,9.833
			c0,0.044-0.005,0.089-0.007,0.134c-0.004,0.062-0.007,0.127-0.014,0.189c0,0.006,0,0.012-0.001,0.018
			c-0.003,0.025-0.009,0.05-0.013,0.075c-0.011,0.076-0.023,0.151-0.038,0.227c-0.008,0.029-0.016,0.059-0.024,0.089
			c-0.018,0.073-0.037,0.146-0.062,0.216c-0.008,0.028-0.019,0.055-0.028,0.081c-0.027,0.072-0.055,0.144-0.085,0.213
			c-0.011,0.023-0.023,0.048-0.035,0.07c-0.033,0.071-0.067,0.14-0.106,0.206c-0.004,0.007-0.008,0.016-0.013,0.023l-8.15,14.09
			c-0.854,1.488-2.755,2.001-4.241,1.146c-1.487-0.854-2.002-2.755-1.147-4.242l5.471-9.456h-4.442
			c-1.717,0-3.107-1.392-3.107-3.106c0-1.717,1.391-3.107,3.107-3.107h9.83c0.014,0,0.028,0.001,0.042,0.002
			c0.074,0.001,0.147,0.004,0.224,0.011c0.026,0.002,0.054,0.005,0.08,0.008c0.008,0.001,0.016,0.001,0.023,0.001
			c0.029,0.004,0.056,0.011,0.086,0.015c0.069,0.01,0.14,0.021,0.209,0.036c0.033,0.008,0.066,0.017,0.1,0.025
			c0.066,0.018,0.133,0.034,0.197,0.055c0.037,0.013,0.073,0.027,0.11,0.04c0.058,0.022,0.116,0.043,0.173,0.068
			c0.041,0.017,0.08,0.038,0.119,0.057c0.05,0.024,0.1,0.049,0.148,0.076c0.042,0.022,0.082,0.049,0.122,0.073
			c0.045,0.028,0.09,0.055,0.133,0.085c0.039,0.027,0.077,0.057,0.114,0.085c0.042,0.032,0.084,0.064,0.124,0.099
			c0.035,0.029,0.067,0.06,0.101,0.091c0.041,0.037,0.081,0.073,0.12,0.113c0.028,0.03,0.056,0.062,0.084,0.092
			c0.038,0.045,0.078,0.088,0.114,0.134c0.023,0.029,0.046,0.061,0.067,0.091c0.038,0.05,0.076,0.101,0.109,0.152
			c0.02,0.029,0.037,0.061,0.055,0.09c0.034,0.056,0.067,0.112,0.098,0.169c0.016,0.03,0.03,0.062,0.045,0.095
			c0.029,0.058,0.057,0.116,0.081,0.177c0.014,0.034,0.025,0.071,0.037,0.106c0.022,0.059,0.044,0.116,0.062,0.176
			c0.013,0.042,0.022,0.084,0.032,0.127c0.015,0.056,0.029,0.11,0.039,0.166c0.011,0.05,0.017,0.1,0.023,0.149
			c0.008,0.052,0.016,0.103,0.021,0.154c0.005,0.055,0.006,0.107,0.008,0.161c0.002,0.043,0.008,0.085,0.008,0.129
			C24.823,9.814,24.822,9.824,24.821,9.833z"/>
	</g>
</g>
</svg>
