<svg id="Ebene_1" data-name="Ebene 1" xmlns="http://www.w3.org/2000/svg" viewBox="0 0 800 800"><defs><style>.cls-1{fill:#fff;}.cls-2{fill:#999;}.cls-3{fill:#2b3033;}</style></defs><title>theme-content-testimonial</title><path class="cls-1" d="M50,50H750V750H50Z"/><path class="cls-2" d="M50,50V750H750V50Zm50,50H700V700H100Z"/><path class="cls-3" d="M601.65,141H196.35C162.06,141,134,169.06,134,202.57V457.44a62.53,62.53,0,0,0,62.35,62.35h166.8a109.9,109.9,0,0,0,10.91,15.59l-28.06,99A15,15,0,0,0,350.68,650c4.67,3.89,10.91,5.45,16.36,3.11l23.39-8.57L406,664.76A16.28,16.28,0,0,0,418.49,671h3.11c5.46-.78,10.14-5.46,11.69-10.91l14-48.33,14,48.33c1.56,5.45,6.24,10.13,11.69,10.91h3.12a16.26,16.26,0,0,0,12.47-6.24l15.59-20.26,23.38,8.57c5.46,2.34,11.69.78,16.37-3.11a15,15,0,0,0,4.68-15.59l-28.06-99a110.72,110.72,0,0,0,10.91-15.59h70.15A62.53,62.53,0,0,0,664,457.44V202.57C664,169.06,635.94,141,601.65,141ZM510.46,473a64.7,64.7,0,1,1-64.7-64.69A64.54,64.54,0,0,1,510.46,473ZM410.69,621.12l-3.9-4.68A15.9,15.9,0,0,0,388.87,611l-5.46,2.33,16.37-56.89a109.75,109.75,0,0,0,26.5,10.13Zm92-9.36a15.91,15.91,0,0,0-17.92,5.46l-3.9,4.68-15.59-54.56a109.75,109.75,0,0,0,26.5-10.13l16.37,56.89ZM632.82,458.22a31.27,31.27,0,0,1-31.17,31.18H540.07A116.23,116.23,0,0,0,541.63,473a93.1,93.1,0,0,0-7-36.63h35.07a15.59,15.59,0,0,0,0-31.18H513.57a96,96,0,0,0-135.61,0H228.31a15.59,15.59,0,0,0,0,31.18h128.6a95.91,95.91,0,0,0-7,36.63,116.23,116.23,0,0,0,1.56,16.37H196.35a31.27,31.27,0,0,1-31.17-31.18V202.57c0-16.36,14-30.39,31.17-30.39h405.3c17.14,0,31.17,14,31.17,30.39Z"/><path class="cls-3" d="M569.69,225.18H228.31a15.59,15.59,0,1,0,0,31.17H569.69a15.59,15.59,0,1,0,0-31.17Z"/><path class="cls-3" d="M569.69,314.81H228.31a15.59,15.59,0,1,0,0,31.18H569.69a15.59,15.59,0,0,0,0-31.18Z"/></svg>