<svg id="Ebene_1" data-name="Ebene 1" xmlns="http://www.w3.org/2000/svg" viewBox="0 0 800 800"><defs><style>.cls-1{fill:#fff;}.cls-2{fill:#999;}.cls-3{fill:#515151;}</style></defs><title>theme-content-logos</title><path class="cls-1" d="M50,50H750V750H50Z"/><path class="cls-2" d="M50,50V750H750V50Zm50,50H700V700H100Z"/><path class="cls-3" d="M336,202V342H196V202H336m30-30H166V372H366V172Z"/><path class="cls-3" d="M604,202V342H464V202H604m30-30H434V372H634V172Z"/><path class="cls-3" d="M336,458V598H196V458H336m30-30H166V628H366V428Z"/><path class="cls-3" d="M604,458V598H464V458H604m30-30H434V628H634V428Z"/></svg>