<?xml version="1.0" encoding="UTF-8"?>
<svg width="16px" height="16px" viewBox="0 0 16 16" version="1.1" xmlns="http://www.w3.org/2000/svg" xmlns:xlink="http://www.w3.org/1999/xlink">
    <g id="theme-pagetree-page-contains-impress" stroke="none" stroke-width="1" fill="none" fill-rule="evenodd">
        <g transform="translate(2.000000, 0.000000)">
            <polygon id="Path" fill="#EFEFEF" points="0 0 0 16 12 16 12 4 8 0"></polygon>
            <polygon id="Path" fill="#FFFFFF" opacity="0.65" points="8 4 8 0 12 4"></polygon>
            <polygon id="Path" fill="#000000" opacity="0.2" points="11 5 11 10 7 5"></polygon>
            <path d="M0,0 L0,16 L12,16 L12,4 L8,0 L0,0 Z M1,1 L7,1 L7,5 L11,5 L11,15 L1,15 L1,1 Z M8,1.4 L10.6,4 L8,4 L8,1.4 Z" id="Shape" fill="#999999" fill-rule="nonzero"></path>
        </g>
        <path d="M3.996,9.836 C3.996,9.188 4.308,8.768 4.74,8.492 C4.392,8.252 4.212,7.784 4.212,7.28 C4.212,5.984 5.088,5.516 6.228,5.516 C6.852,5.516 7.272,5.624 7.512,5.684 L7.512,6.572 C7.104,6.464 6.78,6.368 6.132,6.368 C5.436,6.368 5.208,6.86 5.208,7.22 C5.208,7.7 5.448,7.988 5.976,8.072 C7.224,8.276 7.644,8.924 7.644,9.764 C7.644,10.448 7.308,10.856 6.864,11.12 C7.26,11.372 7.428,11.876 7.428,12.332 C7.428,13.604 6.552,14.084 5.412,14.084 C4.788,14.084 4.368,13.964 4.128,13.904 L4.128,13.04 C4.536,13.136 4.86,13.22 5.508,13.22 C6.204,13.22 6.432,12.704 6.432,12.392 C6.432,11.924 6.192,11.612 5.664,11.528 C4.416,11.324 3.996,10.664 3.996,9.836 Z M6.612,9.824 C6.612,9.284 6.48,8.96 5.58,8.804 C5.28,8.912 5.028,9.344 5.028,9.776 C5.028,10.316 5.136,10.64 6.012,10.784 C6.252,10.664 6.612,10.256 6.612,9.824 Z" id="ยง" fill="#323232"></path>
    </g>
</svg>
