<svg id="Ebene_1" data-name="Ebene 1" xmlns="http://www.w3.org/2000/svg" viewBox="0 0 800 800"><defs><style>.cls-1{fill:#fff;}.cls-2{fill:#999;}.cls-3{fill:none;}</style></defs><title>theme-content-person</title><path class="cls-1" d="M50,50H750V750H50Z"/><path class="cls-2" d="M50,50V750H750V50Zm50,50H700V700H100Z"/><path d="M460,400c-16.7,18.1-40.15,30-60.15,30,53.5-1.1,102.75-70.4,107.7-120V240c0-50-40-90-95-90h-25c-50,0-95,40-95,90v70c0,31.1,19.35,70,47.25,94.9-.75,48-12,65.55-15.95,76.6-2.95-.5-4.35-.95-3.8-1.5-35,15-75,35-125,50,0,0-45,25-45,120H650c-15-100-55-120-55-120-51.5-14-85.45-32.5-118.3-47.05C473.85,471.5,460,450.5,460,400Z"/><rect class="cls-3" width="800" height="800"/></svg>