<svg xmlns="http://www.w3.org/2000/svg" xmlns:xlink="http://www.w3.org/1999/xlink" viewBox="0 0 16 15.97"><defs><style>.cls-1{fill:url(#Unbenannter_Verlauf_40);}.cls-2{fill:#606060;}.cls-3{opacity:0.42;fill:url(#Unbenannter_Verlauf_39);}.cls-13,.cls-17,.cls-18,.cls-3,.cls-7{isolation:isolate;}.cls-4{fill:url(#Unbenannter_Verlauf_38);}.cls-5{fill:#999;}.cls-6{fill:url(#Unbenannter_Verlauf_33);}.cls-13,.cls-16,.cls-17,.cls-18,.cls-7{fill:#fff;}.cls-7{opacity:0.46;}.cls-8{fill:url(#Unbenannter_Verlauf_33-2);}.cls-9{fill:url(#Unbenannter_Verlauf_33-3);}.cls-10{fill:url(#Unbenannter_Verlauf_33-4);}.cls-11{fill:url(#Unbenannter_Verlauf_33-5);}.cls-12{fill:url(#Unbenannter_Verlauf_32);}.cls-13{opacity:0.25;}.cls-14{fill:url(#Unbenannter_Verlauf_55);}.cls-15{fill:#202020;}.cls-17{opacity:0.32;}.cls-18{opacity:0.32;}</style><linearGradient id="Unbenannter_Verlauf_40" x1="-358.67" y1="3586.1" x2="-356.86" y2="3584.25" gradientTransform="matrix(0.97, 0.26, 0.26, -0.98, -579.05, 3605.14)" gradientUnits="userSpaceOnUse"><stop offset="0" stop-color="#858585"/><stop offset="1" stop-color="#6b6b6b"/></linearGradient><linearGradient id="Unbenannter_Verlauf_39" x1="2.13" y1="2917.87" x2="4.19" y2="2915.01" gradientTransform="matrix(1, 0, 0, -1, 0, 2920.08)" gradientUnits="userSpaceOnUse"><stop offset="0" stop-color="#fff"/><stop offset="1" stop-color="#fff" stop-opacity="0"/></linearGradient><radialGradient id="Unbenannter_Verlauf_38" cx="3164.63" cy="1662.68" r="5.7" gradientTransform="matrix(0.51, -0.22, -0.64, -1.17, -539.63, 2640.77)" gradientUnits="userSpaceOnUse"><stop offset="0" stop-color="#e9e9e9"/><stop offset="0.5" stop-color="#dadada"/><stop offset="1" stop-color="#b4b4b4"/></radialGradient><linearGradient id="Unbenannter_Verlauf_33" x1="153.38" y1="1549.36" x2="153.76" y2="1552.6" gradientTransform="matrix(0.87, -0.5, -0.8, -1.38, 1110.18, 2231.56)" gradientUnits="userSpaceOnUse"><stop offset="0" stop-color="#999"/><stop offset="1" stop-color="#999" stop-opacity="0"/></linearGradient><linearGradient id="Unbenannter_Verlauf_33-2" x1="159.09" y1="1549.22" x2="158.64" y2="1552.87" gradientTransform="matrix(0.87, -0.5, -0.8, -1.38, 1111.03, 2233.04)" xlink:href="#Unbenannter_Verlauf_33"/><linearGradient id="Unbenannter_Verlauf_33-3" x1="157.53" y1="1565.9" x2="157.13" y2="1568.93" gradientTransform="matrix(0.87, -0.5, -0.84, -1.46, 1192.64, 2379.48)" xlink:href="#Unbenannter_Verlauf_33"/><linearGradient id="Unbenannter_Verlauf_33-4" x1="154.08" y1="1551.07" x2="154.08" y2="1554.33" gradientTransform="matrix(0.87, -0.5, -0.8, -1.39, 1120.23, 2242.07)" xlink:href="#Unbenannter_Verlauf_33"/><linearGradient id="Unbenannter_Verlauf_33-5" x1="155.69" y1="1572.29" x2="154.53" y2="1574.3" gradientTransform="matrix(0.87, -0.5, -0.86, -1.49, 1228.37, 2435.38)" xlink:href="#Unbenannter_Verlauf_33"/><linearGradient id="Unbenannter_Verlauf_32" x1="-37.62" y1="2906.53" x2="-35.23" y2="2907.92" gradientTransform="matrix(1.01, 0, 0, -1.01, 41.26, 2931.07)" gradientUnits="userSpaceOnUse"><stop offset="0" stop-color="#b4b4b4"/><stop offset="0.5" stop-color="#e3e3e3"/><stop offset="1" stop-color="#e7e7e7"/></linearGradient><linearGradient id="Unbenannter_Verlauf_55" x1="-291.93" y1="1446.65" x2="-295.53" y2="1447.02" gradientTransform="matrix(1.02, -0.59, -0.59, -1.02, 1156.53, 1308.47)" gradientUnits="userSpaceOnUse"><stop offset="0" stop-color="#6e6e6e"/><stop offset="0.5" stop-color="#c5c5c5"/><stop offset="1" stop-color="#737373"/></linearGradient></defs><title>theme-backend-clear-processedfiles</title><g id="Ebene_2" data-name="Ebene 2"><g id="Icons"><g id="Clear_Processed_Files_Clear_Cache_Button" data-name="Clear Processed Files Clear Cache Button"><path id="path7966" class="cls-1" d="M.88.32A1.85,1.85,0,0,1,3,.91L4.79,4.49A1,1,0,0,1,4.55,6a1.3,1.3,0,0,1-1.6-.58L.43,2.29A1.42,1.42,0,0,1,.88.32Z"/><path class="cls-2" d="M4.11,6.33a1.38,1.38,0,0,1-.32,0,1.71,1.71,0,0,1-1-.74L.25,2.4A1.73,1.73,0,0,1,.09.95,1.29,1.29,0,0,1,.78.15h0A2.07,2.07,0,0,1,3.2.82L5,4.42A1.2,1.2,0,0,1,4.66,6.2,1.2,1.2,0,0,1,4.11,6.33ZM1,.49a.92.92,0,0,0-.48.57A1.39,1.39,0,0,0,.61,2.2L3.12,5.34a1.31,1.31,0,0,0,.78.58.78.78,0,0,0,.54-.05.87.87,0,0,0,.16-1.28L2.82,1A1.64,1.64,0,0,0,1,.49Z"/><path class="cls-3" d="M3.48,5.79.68,2.32A1.41,1.41,0,0,1,.44,1.14,1.05,1.05,0,0,1,1,.52a1.4,1.4,0,0,1,1.86.58l2,4ZM1.64.75a1,1,0,0,0-.43.11h0a.66.66,0,0,0-.36.39,1.08,1.08,0,0,0,.2.87L3.6,5.29l.7-.36L2.49,1.27A1,1,0,0,0,1.64.75ZM1.11.69h0Z"/><path id="path7968" class="cls-4" d="M4.23,8.26c-.39,1.88.52,6.83,2.9,7.43,2.54.64,7-2.43,8.51-3.85C13,10.7,11.29,7.94,8.63,7,6.93,6.38,5.67,7.5,4.23,8.26Z"/><path class="cls-5" d="M7.87,16a3.26,3.26,0,0,1-.8-.09C4.52,15.23,3.61,10.18,4,8.23l0-.08.08,0c.27-.14.54-.3.8-.46C6.06,7,7.22,6.28,8.71,6.81a12.09,12.09,0,0,1,3.71,2.51,13.32,13.32,0,0,0,3.32,2.36l.26.11-.2.19C14.32,13.34,10.53,16,7.87,16ZM4.42,8.38C4.1,10.19,5,15,7.19,15.51s6.24-2,8.1-3.61a14.6,14.6,0,0,1-3.17-2.31A11.58,11.58,0,0,0,8.55,7.16c-1.27-.46-2.3.15-3.38.79Z"/><path class="cls-6" d="M8,15.81a.22.22,0,0,1-.16-.06,9.5,9.5,0,0,1-2.35-4.59A20.34,20.34,0,0,0,4.7,8.92a.18.18,0,0,1,.13-.24.23.23,0,0,1,.27.11,20.72,20.72,0,0,1,.76,2.27A9.22,9.22,0,0,0,8.11,15.5a.17.17,0,0,1,0,.27A.22.22,0,0,1,8,15.81Z"/><path class="cls-7" d="M8,15.39a2.55,2.55,0,0,1-1.94-.92c-.52-.56-2.17-4.12-1.87-5.53a.82.82,0,0,1,.42-.6l.69-.41a3.79,3.79,0,0,1,3.12-.81,11.42,11.42,0,0,1,4.09,2.72,16.16,16.16,0,0,0,2.54,2l.25.14-.22.17a19.33,19.33,0,0,1-4.45,2.56A7.56,7.56,0,0,1,8,15.39Zm-.31-8a4.21,4.21,0,0,0-2.15.84l-.71.42h0A.47.47,0,0,0,4.61,9c-.27,1.26,1.31,4.72,1.78,5.22,1.16,1.24,2.31.78,4,.09A18.74,18.74,0,0,0,14.57,12a18.88,18.88,0,0,1-2.37-1.88A11.15,11.15,0,0,0,8.3,7.48,2.41,2.41,0,0,0,7.69,7.39Z"/><path class="cls-8" d="M14.48,12.93a.23.23,0,0,1-.12,0,34.89,34.89,0,0,1-5-3.7,7.9,7.9,0,0,0-1.22-1,.24.24,0,0,1-.25,0,.17.17,0,0,1,0-.27c.31-.24.7.11,1.75,1a34.6,34.6,0,0,0,4.9,3.66.17.17,0,0,1,.06.26A.22.22,0,0,1,14.48,12.93Z"/><path class="cls-9" d="M9.37,15.31a.23.23,0,0,1-.15-.05,8.51,8.51,0,0,1-2.5-4.15A9,9,0,0,0,5.43,8.4a.17.17,0,0,1,.05-.26.23.23,0,0,1,.3,0A9.22,9.22,0,0,1,7.13,11a8.21,8.21,0,0,0,2.39,4,.17.17,0,0,1,0,.27A.23.23,0,0,1,9.37,15.31Z"/><path class="cls-10" d="M12.49,14.15a.23.23,0,0,1-.12,0c-1.3-.78-4.68-5.56-4.82-5.76a.18.18,0,0,1,.07-.26.23.23,0,0,1,.29.06s3.47,4.91,4.7,5.65a.18.18,0,0,1,.06.26A.22.22,0,0,1,12.49,14.15Z"/><path class="cls-11" d="M11,14.83a.23.23,0,0,1-.17-.07A23.91,23.91,0,0,1,9.1,12.28,19.44,19.44,0,0,0,6,8.18a.17.17,0,0,1,0-.27.23.23,0,0,1,.3,0,19.4,19.4,0,0,1,3.17,4.2,24.29,24.29,0,0,0,1.68,2.43.18.18,0,0,1,0,.27A.23.23,0,0,1,11,14.83Z"/><path id="path7982" class="cls-12" d="M1.56,6.47,6.44,4c.26.9-.15,1.22.77,2.7L3.84,8.41C3.22,7.09,2.32,7.12,1.56,6.47Z"/><path class="cls-5" d="M3.84,8.6H3.77a.21.21,0,0,1-.13-.11,2.65,2.65,0,0,0-1.4-1.35,4.28,4.28,0,0,1-.83-.52.18.18,0,0,1-.06-.16.19.19,0,0,1,.11-.14L6.34,3.83a.23.23,0,0,1,.19,0A.2.2,0,0,1,6.65,4a3.32,3.32,0,0,1,.12.81A3.27,3.27,0,0,0,7.4,6.61a.18.18,0,0,1-.08.26L3.94,8.57ZM1.93,6.51a5.37,5.37,0,0,0,.53.3A3,3,0,0,1,3.94,8.14l3-1.51a3.46,3.46,0,0,1-.58-1.84,3.81,3.81,0,0,0,0-.49Z"/><path class="cls-13" d="M3.84,7.94l-.11-.17a3.07,3.07,0,0,0-1-.83c-.17-.1-.34-.2-.48-.3L2,6.47,6.3,4.31v.33a4.14,4.14,0,0,0,.23,1.18c0,.17.1.33.14.49l0,.13ZM2.74,6.52l.19.11A4,4,0,0,1,4,7.42L6.21,6.25l-.1-.34a6.07,6.07,0,0,1-.23-1Z"/><path id="rect7984" class="cls-14" d="M2.93,7.64,7,5.56a.46.46,0,0,1,.58.14l.31.48a.36.36,0,0,1-.16.52L3.67,8.77a.46.46,0,0,1-.58-.14l-.31-.48A.36.36,0,0,1,2.93,7.64Z"/><path class="cls-15" d="M3.46,9a.66.66,0,0,1-.56-.28l-.31-.48a.51.51,0,0,1-.06-.43.58.58,0,0,1,.3-.34L6.89,5.39a.69.69,0,0,1,.87.21l.31.48a.51.51,0,0,1,.06.43.58.58,0,0,1-.3.34L3.78,8.93A.7.7,0,0,1,3.46,9ZM7.21,5.7l-.11,0L3,7.8A.18.18,0,0,0,3,8.06l.31.48a.23.23,0,0,0,.29.07L7.63,6.53a.19.19,0,0,0,.1-.11.17.17,0,0,0,0-.14l-.31-.48A.22.22,0,0,0,7.21,5.7ZM2.93,7.64h0Z"/><path id="path10193" class="cls-16" d="M2.11,1.49a.56.56,0,0,1-.68.35A.49.49,0,0,1,1,1.23H1A.56.56,0,0,1,1.72.89a.49.49,0,0,1,.39.6Z"/><path class="cls-2" d="M1.57,2.16l-.23,0a.8.8,0,0,1-.64-1A.92.92,0,0,1,1.81.58.89.89,0,0,1,2.36,1a.72.72,0,0,1,.09.61h0A.9.9,0,0,1,1.57,2.16Zm0-1a.2.2,0,0,0-.19.13.18.18,0,0,0,.14.22.2.2,0,0,0,.24-.13h0a.16.16,0,0,0,0-.14.2.2,0,0,0-.12-.08Zm.53.3h0Z"/><path id="path3558" class="cls-17" d="M9.75,15a5.78,5.78,0,0,0,.93-.36c-.79-1.1-1.48-2.26-2.3-3.35A11.21,11.21,0,0,0,9.75,15Z"/><path id="path3560" class="cls-17" d="M11.2,14.41a4.94,4.94,0,0,0,.86-.41,23,23,0,0,1-3.18-3.82Z"/><path id="path3562" class="cls-17" d="M13.12,13.4a6.59,6.59,0,0,0,1-.66C12.28,12,10.64,10.27,9.23,9Z"/><path id="path3565" class="cls-17" d="M14.61,12.46a4.85,4.85,0,0,0,.72-.53c-2-.8-3.73-2.46-5.32-3.74C11.17,9.72,12.67,11.69,14.61,12.46Z"/><path id="path2265" class="cls-18" d="M8.32,15.36l.87-.17A7,7,0,0,1,7,11.93,5.32,5.32,0,0,0,8.32,15.36Z"/><path id="path2267" class="cls-18" d="M7,15.51h.53a8.8,8.8,0,0,1-1.89-3.55A5.9,5.9,0,0,0,7,15.51Z"/></g></g></g></svg>