<?xml version="1.0" encoding="UTF-8"?>
<svg width="16px" height="16px" viewBox="0 0 16 16" version="1.1" xmlns="http://www.w3.org/2000/svg" xmlns:xlink="http://www.w3.org/1999/xlink">
    <!-- Generator: Sketch 52.3 (67297) - http://www.bohemiancoding.com/sketch -->
    <title>theme-pagetree-folder-contains-landingpages</title>
    <desc>Created with Sketch.</desc>
    <g id="theme-pagetree-folder-contains-landingpages" stroke="none" stroke-width="1" fill="none" fill-rule="evenodd">
        <g transform="translate(0.000000, 1.000000)">
            <polygon id="Path" fill="#888888" points="0 2 0 14 12.5 14 12.5 3.80996055 5.00332819 3.80996055 3.89085505 2"></polygon>
            <rect id="Rectangle" x="0" y="0" width="16" height="16"></rect>
            <g id="World-link" transform="translate(2.000000, 5.000000)">
                <g id="World">
                    <circle id="Oval" fill="#5599FF" cx="2.2427027" cy="2.2427027" r="2.2427027"></circle>
                    <path d="M4.19733591,2.06756757 C4.13810607,1.42346741 3.76672313,0.849382105 3.20351351,0.531312741 C3.17779923,0.558590734 3.17084942,0.542606178 3.17084942,0.569710425 C3.09318533,0.596988417 2.9896332,0.542606178 2.91196911,0.515328185 C2.72243766,0.439563659 2.51287663,0.430013113 2.31723938,0.488223938 C2.23957529,0.515328185 2.05870656,0.542606178 2.13602317,0.705752896 C2.18814672,0.787586873 2.31689189,0.869247104 2.44650579,0.760482625 C2.49862934,0.705926641 2.5507529,0.624440154 2.62720077,0.705926641 C2.6472911,0.728234689 2.65678887,0.758121024 2.65326255,0.787934363 C2.62720077,0.869247104 2.54901544,0.896698842 2.47222008,0.896698842 C2.36797297,0.923803089 2.26476834,0.896698842 2.16156371,0.923803089 C2.05835907,0.950907336 1.90285714,0.978185328 1.90285714,1.11492278 C1.90285714,1.27754826 1.85073359,1.305 1.72146718,1.33227799 C1.61722008,1.33227799 1.56648649,1.38666023 1.61722008,1.49542471 C1.64328185,1.57673745 1.72146718,1.57673745 1.77359073,1.54980695 C1.98069498,1.44208494 2.16138996,1.16930502 2.39403475,1.49559846 L2.4461583,1.46832046 C2.49828185,1.25079151 2.55040541,1.38700772 2.60148649,1.46832046 L2.67897683,1.5496332 C2.98841699,1.25096525 2.91127413,1.68532819 3.015,1.76716216 C2.80754826,1.71277992 2.57472973,1.93030888 2.39403475,1.79444015 C2.08372587,1.54998069 1.87679537,1.65874517 1.59220077,1.90320463 C1.35955598,2.09432432 1.30777992,2.33756757 1.35955598,2.55579151 C1.43704633,2.8277027 1.72129344,2.85480695 1.95445946,2.80042471 C2.03177606,2.77297297 2.18710425,2.77297297 2.18710425,2.82735521 C2.13498069,3.07216216 2.41974903,3.23530888 2.31602317,3.50687259 C2.23870656,3.72440154 2.36814672,3.99631274 2.54866795,4.07797297 C2.72918919,4.1596332 2.88521236,3.9419305 2.96305019,3.75167954 C2.98893822,3.72440154 2.96305019,3.6703668 2.98893822,3.64291506 C3.19569498,3.37100386 3.16998069,2.96339768 3.42833977,2.69148649 C3.50600386,2.61017375 3.76488417,2.31098456 3.55743243,2.06600386 C4.04913127,1.92996139 3.86861004,2.4192278 3.97164093,2.6369305 C4.04913127,2.47413127 4.1003861,2.31081081 4.15250965,2.17476834 C4.17822394,2.0934556 4.19733591,2.06756757 4.19733591,2.06756757 Z M1.38700772,0.61957529 C1.46832046,0.533745174 1.47196911,0.519671815 1.55362934,0.405 C1.35830405,0.47729383 1.17630375,0.581444969 1.01501931,0.713223938 L1.06158301,0.762741313 L1.30638996,0.762741313 C1.31376226,0.76284472 1.3208505,0.759901422 1.32598114,0.754606335 C1.33111179,0.749311248 1.33383007,0.742133707 1.33349421,0.73476834 L1.3607722,0.705926641 C1.36817647,0.705934099 1.37526146,0.70291214 1.38038095,0.697562931 C1.38550043,0.692213723 1.38820869,0.685002988 1.38787645,0.677606178 L1.41480695,0.649111969 L1.44208494,0.619749035 C1.3607722,0.677258687 1.3607722,0.648764479 1.3877027,0.619749035 L1.38700772,0.61957529 Z M1.0277027,3.26640927 L1.0277027,3.18891892 L1.0007722,3.16216216 C0.974189189,3.16216216 0.974189189,3.13610039 0.947432432,3.13610039 C0.920675676,3.13610039 0.894266409,3.11003861 0.867335907,3.11003861 L0.813822394,3.11003861 C0.806836852,3.11022621 0.800072165,3.10758177 0.795065852,3.10270634 C0.790059538,3.09783091 0.787236864,3.09113864 0.787239382,3.08415058 C0.599942085,2.97990347 0.520019305,2.79972973 0.466505792,2.59314672 C0.466505792,2.54102317 0.439749035,2.48889961 0.439749035,2.43781853 C0.413513514,2.41175676 0.413513514,2.38569498 0.386583012,2.35980695 C0.333243243,2.3076834 0.360173745,2.20482625 0.413513514,2.10144788 L0.413513514,2.04932432 C0.413513514,2.02326255 0.413513514,2.02326255 0.440096525,1.99720077 C0.440096525,1.97200772 0.440096525,1.97200772 0.467027027,1.94507722 C0.520366795,1.84083012 0.627393822,1.76403475 0.680559846,1.68637066 C0.707316602,1.66048263 0.707316602,1.66048263 0.707316602,1.6342471 L0.707316602,1.61096525 C0.733899614,1.58525097 0.733899614,1.5334749 0.760482625,1.50671815 C0.760482625,1.4815251 0.787413127,1.42940154 0.787413127,1.40368726 C0.787413127,1.35156371 0.787413127,1.32602317 0.760482625,1.27476834 C0.733552124,1.19675676 0.717393822,1.12951737 0.664054054,1.07756757 C0.423590734,1.41393822 0.28007722,1.79131274 0.28007722,2.23054054 C0.276843065,2.80318012 0.5244444,3.34853793 0.957683398,3.72301158 C0.957683398,3.72301158 0.975057915,3.73030888 0.975057915,3.70563707 L0.975057915,3.6792278 C0.975057915,3.65351351 1.00164093,3.65351351 1.00164093,3.62710425 C1.02857143,3.52285714 1.02857143,3.36857143 1.02857143,3.2653668 L1.0277027,3.26640927 Z" id="Shape" fill="#AAD400" fill-rule="nonzero"></path>
                    <path d="M2.2427027,4.48523166 C1.0061583,4.48523166 0,3.47907336 0,2.2427027 C0,1.00633205 1.0061583,0 2.2427027,0 C3.4792471,0 4.48523166,1.0061583 4.48523166,2.2427027 C4.48523166,3.4792471 3.47907336,4.48523166 2.2427027,4.48523166 Z M2.2427027,0.280598456 C1.44888605,0.280387627 0.733122995,0.758427551 0.42922888,1.49177146 C0.125334765,2.22511537 0.293168821,3.0693136 0.854457126,3.63065161 C1.41574543,4.19198962 2.25992879,4.35989844 2.99329961,4.05606926 C3.72667043,3.75224009 4.20477374,3.03651937 4.2046332,2.2427027 C4.20338911,1.15958972 3.32581532,0.281782778 2.2427027,0.280250965 L2.2427027,0.280598456 Z" id="Shape" fill="#000000" fill-rule="nonzero" opacity="0.2"></path>
                </g>
            </g>
            <g id="World-link" transform="translate(7.000000, 3.000000)">
                <g id="World">
                    <circle id="Oval" fill="#5599FF" cx="2.2427027" cy="2.2427027" r="2.2427027"></circle>
                    <path d="M4.19733591,2.06756757 C4.13810607,1.42346741 3.76672313,0.849382105 3.20351351,0.531312741 C3.17779923,0.558590734 3.17084942,0.542606178 3.17084942,0.569710425 C3.09318533,0.596988417 2.9896332,0.542606178 2.91196911,0.515328185 C2.72243766,0.439563659 2.51287663,0.430013113 2.31723938,0.488223938 C2.23957529,0.515328185 2.05870656,0.542606178 2.13602317,0.705752896 C2.18814672,0.787586873 2.31689189,0.869247104 2.44650579,0.760482625 C2.49862934,0.705926641 2.5507529,0.624440154 2.62720077,0.705926641 C2.6472911,0.728234689 2.65678887,0.758121024 2.65326255,0.787934363 C2.62720077,0.869247104 2.54901544,0.896698842 2.47222008,0.896698842 C2.36797297,0.923803089 2.26476834,0.896698842 2.16156371,0.923803089 C2.05835907,0.950907336 1.90285714,0.978185328 1.90285714,1.11492278 C1.90285714,1.27754826 1.85073359,1.305 1.72146718,1.33227799 C1.61722008,1.33227799 1.56648649,1.38666023 1.61722008,1.49542471 C1.64328185,1.57673745 1.72146718,1.57673745 1.77359073,1.54980695 C1.98069498,1.44208494 2.16138996,1.16930502 2.39403475,1.49559846 L2.4461583,1.46832046 C2.49828185,1.25079151 2.55040541,1.38700772 2.60148649,1.46832046 L2.67897683,1.5496332 C2.98841699,1.25096525 2.91127413,1.68532819 3.015,1.76716216 C2.80754826,1.71277992 2.57472973,1.93030888 2.39403475,1.79444015 C2.08372587,1.54998069 1.87679537,1.65874517 1.59220077,1.90320463 C1.35955598,2.09432432 1.30777992,2.33756757 1.35955598,2.55579151 C1.43704633,2.8277027 1.72129344,2.85480695 1.95445946,2.80042471 C2.03177606,2.77297297 2.18710425,2.77297297 2.18710425,2.82735521 C2.13498069,3.07216216 2.41974903,3.23530888 2.31602317,3.50687259 C2.23870656,3.72440154 2.36814672,3.99631274 2.54866795,4.07797297 C2.72918919,4.1596332 2.88521236,3.9419305 2.96305019,3.75167954 C2.98893822,3.72440154 2.96305019,3.6703668 2.98893822,3.64291506 C3.19569498,3.37100386 3.16998069,2.96339768 3.42833977,2.69148649 C3.50600386,2.61017375 3.76488417,2.31098456 3.55743243,2.06600386 C4.04913127,1.92996139 3.86861004,2.4192278 3.97164093,2.6369305 C4.04913127,2.47413127 4.1003861,2.31081081 4.15250965,2.17476834 C4.17822394,2.0934556 4.19733591,2.06756757 4.19733591,2.06756757 Z M1.38700772,0.61957529 C1.46832046,0.533745174 1.47196911,0.519671815 1.55362934,0.405 C1.35830405,0.47729383 1.17630375,0.581444969 1.01501931,0.713223938 L1.06158301,0.762741313 L1.30638996,0.762741313 C1.31376226,0.76284472 1.3208505,0.759901422 1.32598114,0.754606335 C1.33111179,0.749311248 1.33383007,0.742133707 1.33349421,0.73476834 L1.3607722,0.705926641 C1.36817647,0.705934099 1.37526146,0.70291214 1.38038095,0.697562931 C1.38550043,0.692213723 1.38820869,0.685002988 1.38787645,0.677606178 L1.41480695,0.649111969 L1.44208494,0.619749035 C1.3607722,0.677258687 1.3607722,0.648764479 1.3877027,0.619749035 L1.38700772,0.61957529 Z M1.0277027,3.26640927 L1.0277027,3.18891892 L1.0007722,3.16216216 C0.974189189,3.16216216 0.974189189,3.13610039 0.947432432,3.13610039 C0.920675676,3.13610039 0.894266409,3.11003861 0.867335907,3.11003861 L0.813822394,3.11003861 C0.806836852,3.11022621 0.800072165,3.10758177 0.795065852,3.10270634 C0.790059538,3.09783091 0.787236864,3.09113864 0.787239382,3.08415058 C0.599942085,2.97990347 0.520019305,2.79972973 0.466505792,2.59314672 C0.466505792,2.54102317 0.439749035,2.48889961 0.439749035,2.43781853 C0.413513514,2.41175676 0.413513514,2.38569498 0.386583012,2.35980695 C0.333243243,2.3076834 0.360173745,2.20482625 0.413513514,2.10144788 L0.413513514,2.04932432 C0.413513514,2.02326255 0.413513514,2.02326255 0.440096525,1.99720077 C0.440096525,1.97200772 0.440096525,1.97200772 0.467027027,1.94507722 C0.520366795,1.84083012 0.627393822,1.76403475 0.680559846,1.68637066 C0.707316602,1.66048263 0.707316602,1.66048263 0.707316602,1.6342471 L0.707316602,1.61096525 C0.733899614,1.58525097 0.733899614,1.5334749 0.760482625,1.50671815 C0.760482625,1.4815251 0.787413127,1.42940154 0.787413127,1.40368726 C0.787413127,1.35156371 0.787413127,1.32602317 0.760482625,1.27476834 C0.733552124,1.19675676 0.717393822,1.12951737 0.664054054,1.07756757 C0.423590734,1.41393822 0.28007722,1.79131274 0.28007722,2.23054054 C0.276843065,2.80318012 0.5244444,3.34853793 0.957683398,3.72301158 C0.957683398,3.72301158 0.975057915,3.73030888 0.975057915,3.70563707 L0.975057915,3.6792278 C0.975057915,3.65351351 1.00164093,3.65351351 1.00164093,3.62710425 C1.02857143,3.52285714 1.02857143,3.36857143 1.02857143,3.2653668 L1.0277027,3.26640927 Z" id="Shape" fill="#AAD400" fill-rule="nonzero"></path>
                    <path d="M2.2427027,4.48523166 C1.0061583,4.48523166 0,3.47907336 0,2.2427027 C0,1.00633205 1.0061583,0 2.2427027,0 C3.4792471,0 4.48523166,1.0061583 4.48523166,2.2427027 C4.48523166,3.4792471 3.47907336,4.48523166 2.2427027,4.48523166 Z M2.2427027,0.280598456 C1.44888605,0.280387627 0.733122995,0.758427551 0.42922888,1.49177146 C0.125334765,2.22511537 0.293168821,3.0693136 0.854457126,3.63065161 C1.41574543,4.19198962 2.25992879,4.35989844 2.99329961,4.05606926 C3.72667043,3.75224009 4.20477374,3.03651937 4.2046332,2.2427027 C4.20338911,1.15958972 3.32581532,0.281782778 2.2427027,0.280250965 L2.2427027,0.280598456 Z" id="Shape" fill="#000000" fill-rule="nonzero" opacity="0.2"></path>
                </g>
            </g>
            <g id="World-link" transform="translate(11.000000, 3.000000)">
                <g id="World">
                    <circle id="Oval" fill="#5599FF" cx="2.2427027" cy="2.2427027" r="2.2427027"></circle>
                    <path d="M4.19733591,2.06756757 C4.13810607,1.42346741 3.76672313,0.849382105 3.20351351,0.531312741 C3.17779923,0.558590734 3.17084942,0.542606178 3.17084942,0.569710425 C3.09318533,0.596988417 2.9896332,0.542606178 2.91196911,0.515328185 C2.72243766,0.439563659 2.51287663,0.430013113 2.31723938,0.488223938 C2.23957529,0.515328185 2.05870656,0.542606178 2.13602317,0.705752896 C2.18814672,0.787586873 2.31689189,0.869247104 2.44650579,0.760482625 C2.49862934,0.705926641 2.5507529,0.624440154 2.62720077,0.705926641 C2.6472911,0.728234689 2.65678887,0.758121024 2.65326255,0.787934363 C2.62720077,0.869247104 2.54901544,0.896698842 2.47222008,0.896698842 C2.36797297,0.923803089 2.26476834,0.896698842 2.16156371,0.923803089 C2.05835907,0.950907336 1.90285714,0.978185328 1.90285714,1.11492278 C1.90285714,1.27754826 1.85073359,1.305 1.72146718,1.33227799 C1.61722008,1.33227799 1.56648649,1.38666023 1.61722008,1.49542471 C1.64328185,1.57673745 1.72146718,1.57673745 1.77359073,1.54980695 C1.98069498,1.44208494 2.16138996,1.16930502 2.39403475,1.49559846 L2.4461583,1.46832046 C2.49828185,1.25079151 2.55040541,1.38700772 2.60148649,1.46832046 L2.67897683,1.5496332 C2.98841699,1.25096525 2.91127413,1.68532819 3.015,1.76716216 C2.80754826,1.71277992 2.57472973,1.93030888 2.39403475,1.79444015 C2.08372587,1.54998069 1.87679537,1.65874517 1.59220077,1.90320463 C1.35955598,2.09432432 1.30777992,2.33756757 1.35955598,2.55579151 C1.43704633,2.8277027 1.72129344,2.85480695 1.95445946,2.80042471 C2.03177606,2.77297297 2.18710425,2.77297297 2.18710425,2.82735521 C2.13498069,3.07216216 2.41974903,3.23530888 2.31602317,3.50687259 C2.23870656,3.72440154 2.36814672,3.99631274 2.54866795,4.07797297 C2.72918919,4.1596332 2.88521236,3.9419305 2.96305019,3.75167954 C2.98893822,3.72440154 2.96305019,3.6703668 2.98893822,3.64291506 C3.19569498,3.37100386 3.16998069,2.96339768 3.42833977,2.69148649 C3.50600386,2.61017375 3.76488417,2.31098456 3.55743243,2.06600386 C4.04913127,1.92996139 3.86861004,2.4192278 3.97164093,2.6369305 C4.04913127,2.47413127 4.1003861,2.31081081 4.15250965,2.17476834 C4.17822394,2.0934556 4.19733591,2.06756757 4.19733591,2.06756757 Z M1.38700772,0.61957529 C1.46832046,0.533745174 1.47196911,0.519671815 1.55362934,0.405 C1.35830405,0.47729383 1.17630375,0.581444969 1.01501931,0.713223938 L1.06158301,0.762741313 L1.30638996,0.762741313 C1.31376226,0.76284472 1.3208505,0.759901422 1.32598114,0.754606335 C1.33111179,0.749311248 1.33383007,0.742133707 1.33349421,0.73476834 L1.3607722,0.705926641 C1.36817647,0.705934099 1.37526146,0.70291214 1.38038095,0.697562931 C1.38550043,0.692213723 1.38820869,0.685002988 1.38787645,0.677606178 L1.41480695,0.649111969 L1.44208494,0.619749035 C1.3607722,0.677258687 1.3607722,0.648764479 1.3877027,0.619749035 L1.38700772,0.61957529 Z M1.0277027,3.26640927 L1.0277027,3.18891892 L1.0007722,3.16216216 C0.974189189,3.16216216 0.974189189,3.13610039 0.947432432,3.13610039 C0.920675676,3.13610039 0.894266409,3.11003861 0.867335907,3.11003861 L0.813822394,3.11003861 C0.806836852,3.11022621 0.800072165,3.10758177 0.795065852,3.10270634 C0.790059538,3.09783091 0.787236864,3.09113864 0.787239382,3.08415058 C0.599942085,2.97990347 0.520019305,2.79972973 0.466505792,2.59314672 C0.466505792,2.54102317 0.439749035,2.48889961 0.439749035,2.43781853 C0.413513514,2.41175676 0.413513514,2.38569498 0.386583012,2.35980695 C0.333243243,2.3076834 0.360173745,2.20482625 0.413513514,2.10144788 L0.413513514,2.04932432 C0.413513514,2.02326255 0.413513514,2.02326255 0.440096525,1.99720077 C0.440096525,1.97200772 0.440096525,1.97200772 0.467027027,1.94507722 C0.520366795,1.84083012 0.627393822,1.76403475 0.680559846,1.68637066 C0.707316602,1.66048263 0.707316602,1.66048263 0.707316602,1.6342471 L0.707316602,1.61096525 C0.733899614,1.58525097 0.733899614,1.5334749 0.760482625,1.50671815 C0.760482625,1.4815251 0.787413127,1.42940154 0.787413127,1.40368726 C0.787413127,1.35156371 0.787413127,1.32602317 0.760482625,1.27476834 C0.733552124,1.19675676 0.717393822,1.12951737 0.664054054,1.07756757 C0.423590734,1.41393822 0.28007722,1.79131274 0.28007722,2.23054054 C0.276843065,2.80318012 0.5244444,3.34853793 0.957683398,3.72301158 C0.957683398,3.72301158 0.975057915,3.73030888 0.975057915,3.70563707 L0.975057915,3.6792278 C0.975057915,3.65351351 1.00164093,3.65351351 1.00164093,3.62710425 C1.02857143,3.52285714 1.02857143,3.36857143 1.02857143,3.2653668 L1.0277027,3.26640927 Z" id="Shape" fill="#AAD400" fill-rule="nonzero"></path>
                    <path d="M2.2427027,4.48523166 C1.0061583,4.48523166 0,3.47907336 0,2.2427027 C0,1.00633205 1.0061583,0 2.2427027,0 C3.4792471,0 4.48523166,1.0061583 4.48523166,2.2427027 C4.48523166,3.4792471 3.47907336,4.48523166 2.2427027,4.48523166 Z M2.2427027,0.280598456 C1.44888605,0.280387627 0.733122995,0.758427551 0.42922888,1.49177146 C0.125334765,2.22511537 0.293168821,3.0693136 0.854457126,3.63065161 C1.41574543,4.19198962 2.25992879,4.35989844 2.99329961,4.05606926 C3.72667043,3.75224009 4.20477374,3.03651937 4.2046332,2.2427027 C4.20338911,1.15958972 3.32581532,0.281782778 2.2427027,0.280250965 L2.2427027,0.280598456 Z" id="Shape" fill="#000000" fill-rule="nonzero" opacity="0.2"></path>
                </g>
            </g>
            <g id="World-link" transform="translate(8.000000, 0.000000)">
                <g id="World">
                    <circle id="Oval" fill="#5599FF" cx="2.2427027" cy="2.2427027" r="2.2427027"></circle>
                    <path d="M4.19733591,2.06756757 C4.13810607,1.42346741 3.76672313,0.849382105 3.20351351,0.531312741 C3.17779923,0.558590734 3.17084942,0.542606178 3.17084942,0.569710425 C3.09318533,0.596988417 2.9896332,0.542606178 2.91196911,0.515328185 C2.72243766,0.439563659 2.51287663,0.430013113 2.31723938,0.488223938 C2.23957529,0.515328185 2.05870656,0.542606178 2.13602317,0.705752896 C2.18814672,0.787586873 2.31689189,0.869247104 2.44650579,0.760482625 C2.49862934,0.705926641 2.5507529,0.624440154 2.62720077,0.705926641 C2.6472911,0.728234689 2.65678887,0.758121024 2.65326255,0.787934363 C2.62720077,0.869247104 2.54901544,0.896698842 2.47222008,0.896698842 C2.36797297,0.923803089 2.26476834,0.896698842 2.16156371,0.923803089 C2.05835907,0.950907336 1.90285714,0.978185328 1.90285714,1.11492278 C1.90285714,1.27754826 1.85073359,1.305 1.72146718,1.33227799 C1.61722008,1.33227799 1.56648649,1.38666023 1.61722008,1.49542471 C1.64328185,1.57673745 1.72146718,1.57673745 1.77359073,1.54980695 C1.98069498,1.44208494 2.16138996,1.16930502 2.39403475,1.49559846 L2.4461583,1.46832046 C2.49828185,1.25079151 2.55040541,1.38700772 2.60148649,1.46832046 L2.67897683,1.5496332 C2.98841699,1.25096525 2.91127413,1.68532819 3.015,1.76716216 C2.80754826,1.71277992 2.57472973,1.93030888 2.39403475,1.79444015 C2.08372587,1.54998069 1.87679537,1.65874517 1.59220077,1.90320463 C1.35955598,2.09432432 1.30777992,2.33756757 1.35955598,2.55579151 C1.43704633,2.8277027 1.72129344,2.85480695 1.95445946,2.80042471 C2.03177606,2.77297297 2.18710425,2.77297297 2.18710425,2.82735521 C2.13498069,3.07216216 2.41974903,3.23530888 2.31602317,3.50687259 C2.23870656,3.72440154 2.36814672,3.99631274 2.54866795,4.07797297 C2.72918919,4.1596332 2.88521236,3.9419305 2.96305019,3.75167954 C2.98893822,3.72440154 2.96305019,3.6703668 2.98893822,3.64291506 C3.19569498,3.37100386 3.16998069,2.96339768 3.42833977,2.69148649 C3.50600386,2.61017375 3.76488417,2.31098456 3.55743243,2.06600386 C4.04913127,1.92996139 3.86861004,2.4192278 3.97164093,2.6369305 C4.04913127,2.47413127 4.1003861,2.31081081 4.15250965,2.17476834 C4.17822394,2.0934556 4.19733591,2.06756757 4.19733591,2.06756757 Z M1.38700772,0.61957529 C1.46832046,0.533745174 1.47196911,0.519671815 1.55362934,0.405 C1.35830405,0.47729383 1.17630375,0.581444969 1.01501931,0.713223938 L1.06158301,0.762741313 L1.30638996,0.762741313 C1.31376226,0.76284472 1.3208505,0.759901422 1.32598114,0.754606335 C1.33111179,0.749311248 1.33383007,0.742133707 1.33349421,0.73476834 L1.3607722,0.705926641 C1.36817647,0.705934099 1.37526146,0.70291214 1.38038095,0.697562931 C1.38550043,0.692213723 1.38820869,0.685002988 1.38787645,0.677606178 L1.41480695,0.649111969 L1.44208494,0.619749035 C1.3607722,0.677258687 1.3607722,0.648764479 1.3877027,0.619749035 L1.38700772,0.61957529 Z M1.0277027,3.26640927 L1.0277027,3.18891892 L1.0007722,3.16216216 C0.974189189,3.16216216 0.974189189,3.13610039 0.947432432,3.13610039 C0.920675676,3.13610039 0.894266409,3.11003861 0.867335907,3.11003861 L0.813822394,3.11003861 C0.806836852,3.11022621 0.800072165,3.10758177 0.795065852,3.10270634 C0.790059538,3.09783091 0.787236864,3.09113864 0.787239382,3.08415058 C0.599942085,2.97990347 0.520019305,2.79972973 0.466505792,2.59314672 C0.466505792,2.54102317 0.439749035,2.48889961 0.439749035,2.43781853 C0.413513514,2.41175676 0.413513514,2.38569498 0.386583012,2.35980695 C0.333243243,2.3076834 0.360173745,2.20482625 0.413513514,2.10144788 L0.413513514,2.04932432 C0.413513514,2.02326255 0.413513514,2.02326255 0.440096525,1.99720077 C0.440096525,1.97200772 0.440096525,1.97200772 0.467027027,1.94507722 C0.520366795,1.84083012 0.627393822,1.76403475 0.680559846,1.68637066 C0.707316602,1.66048263 0.707316602,1.66048263 0.707316602,1.6342471 L0.707316602,1.61096525 C0.733899614,1.58525097 0.733899614,1.5334749 0.760482625,1.50671815 C0.760482625,1.4815251 0.787413127,1.42940154 0.787413127,1.40368726 C0.787413127,1.35156371 0.787413127,1.32602317 0.760482625,1.27476834 C0.733552124,1.19675676 0.717393822,1.12951737 0.664054054,1.07756757 C0.423590734,1.41393822 0.28007722,1.79131274 0.28007722,2.23054054 C0.276843065,2.80318012 0.5244444,3.34853793 0.957683398,3.72301158 C0.957683398,3.72301158 0.975057915,3.73030888 0.975057915,3.70563707 L0.975057915,3.6792278 C0.975057915,3.65351351 1.00164093,3.65351351 1.00164093,3.62710425 C1.02857143,3.52285714 1.02857143,3.36857143 1.02857143,3.2653668 L1.0277027,3.26640927 Z" id="Shape" fill="#AAD400" fill-rule="nonzero"></path>
                    <path d="M2.2427027,4.48523166 C1.0061583,4.48523166 0,3.47907336 0,2.2427027 C0,1.00633205 1.0061583,0 2.2427027,0 C3.4792471,0 4.48523166,1.0061583 4.48523166,2.2427027 C4.48523166,3.4792471 3.47907336,4.48523166 2.2427027,4.48523166 Z M2.2427027,0.280598456 C1.44888605,0.280387627 0.733122995,0.758427551 0.42922888,1.49177146 C0.125334765,2.22511537 0.293168821,3.0693136 0.854457126,3.63065161 C1.41574543,4.19198962 2.25992879,4.35989844 2.99329961,4.05606926 C3.72667043,3.75224009 4.20477374,3.03651937 4.2046332,2.2427027 C4.20338911,1.15958972 3.32581532,0.281782778 2.2427027,0.280250965 L2.2427027,0.280598456 Z" id="Shape" fill="#000000" fill-rule="nonzero" opacity="0.2"></path>
                </g>
            </g>
            <polygon id="Path" fill="#AAAAAA" points="8.25993142 6 6.54997073 7.33336149 2.53006607 7.33336149 0 14 12.9599398 14 16 6.00016895"></polygon>
            <rect id="Rectangle" x="0" y="0" width="16" height="16"></rect>
            <g id="World-link" transform="translate(3.500000, 1.000000)">
                <g id="World">
                    <circle id="Oval" fill="#5599FF" cx="2.2427027" cy="2.2427027" r="2.2427027"></circle>
                    <path d="M4.19733591,2.06756757 C4.13810607,1.42346741 3.76672313,0.849382105 3.20351351,0.531312741 C3.17779923,0.558590734 3.17084942,0.542606178 3.17084942,0.569710425 C3.09318533,0.596988417 2.9896332,0.542606178 2.91196911,0.515328185 C2.72243766,0.439563659 2.51287663,0.430013113 2.31723938,0.488223938 C2.23957529,0.515328185 2.05870656,0.542606178 2.13602317,0.705752896 C2.18814672,0.787586873 2.31689189,0.869247104 2.44650579,0.760482625 C2.49862934,0.705926641 2.5507529,0.624440154 2.62720077,0.705926641 C2.6472911,0.728234689 2.65678887,0.758121024 2.65326255,0.787934363 C2.62720077,0.869247104 2.54901544,0.896698842 2.47222008,0.896698842 C2.36797297,0.923803089 2.26476834,0.896698842 2.16156371,0.923803089 C2.05835907,0.950907336 1.90285714,0.978185328 1.90285714,1.11492278 C1.90285714,1.27754826 1.85073359,1.305 1.72146718,1.33227799 C1.61722008,1.33227799 1.56648649,1.38666023 1.61722008,1.49542471 C1.64328185,1.57673745 1.72146718,1.57673745 1.77359073,1.54980695 C1.98069498,1.44208494 2.16138996,1.16930502 2.39403475,1.49559846 L2.4461583,1.46832046 C2.49828185,1.25079151 2.55040541,1.38700772 2.60148649,1.46832046 L2.67897683,1.5496332 C2.98841699,1.25096525 2.91127413,1.68532819 3.015,1.76716216 C2.80754826,1.71277992 2.57472973,1.93030888 2.39403475,1.79444015 C2.08372587,1.54998069 1.87679537,1.65874517 1.59220077,1.90320463 C1.35955598,2.09432432 1.30777992,2.33756757 1.35955598,2.55579151 C1.43704633,2.8277027 1.72129344,2.85480695 1.95445946,2.80042471 C2.03177606,2.77297297 2.18710425,2.77297297 2.18710425,2.82735521 C2.13498069,3.07216216 2.41974903,3.23530888 2.31602317,3.50687259 C2.23870656,3.72440154 2.36814672,3.99631274 2.54866795,4.07797297 C2.72918919,4.1596332 2.88521236,3.9419305 2.96305019,3.75167954 C2.98893822,3.72440154 2.96305019,3.6703668 2.98893822,3.64291506 C3.19569498,3.37100386 3.16998069,2.96339768 3.42833977,2.69148649 C3.50600386,2.61017375 3.76488417,2.31098456 3.55743243,2.06600386 C4.04913127,1.92996139 3.86861004,2.4192278 3.97164093,2.6369305 C4.04913127,2.47413127 4.1003861,2.31081081 4.15250965,2.17476834 C4.17822394,2.0934556 4.19733591,2.06756757 4.19733591,2.06756757 Z M1.38700772,0.61957529 C1.46832046,0.533745174 1.47196911,0.519671815 1.55362934,0.405 C1.35830405,0.47729383 1.17630375,0.581444969 1.01501931,0.713223938 L1.06158301,0.762741313 L1.30638996,0.762741313 C1.31376226,0.76284472 1.3208505,0.759901422 1.32598114,0.754606335 C1.33111179,0.749311248 1.33383007,0.742133707 1.33349421,0.73476834 L1.3607722,0.705926641 C1.36817647,0.705934099 1.37526146,0.70291214 1.38038095,0.697562931 C1.38550043,0.692213723 1.38820869,0.685002988 1.38787645,0.677606178 L1.41480695,0.649111969 L1.44208494,0.619749035 C1.3607722,0.677258687 1.3607722,0.648764479 1.3877027,0.619749035 L1.38700772,0.61957529 Z M1.0277027,3.26640927 L1.0277027,3.18891892 L1.0007722,3.16216216 C0.974189189,3.16216216 0.974189189,3.13610039 0.947432432,3.13610039 C0.920675676,3.13610039 0.894266409,3.11003861 0.867335907,3.11003861 L0.813822394,3.11003861 C0.806836852,3.11022621 0.800072165,3.10758177 0.795065852,3.10270634 C0.790059538,3.09783091 0.787236864,3.09113864 0.787239382,3.08415058 C0.599942085,2.97990347 0.520019305,2.79972973 0.466505792,2.59314672 C0.466505792,2.54102317 0.439749035,2.48889961 0.439749035,2.43781853 C0.413513514,2.41175676 0.413513514,2.38569498 0.386583012,2.35980695 C0.333243243,2.3076834 0.360173745,2.20482625 0.413513514,2.10144788 L0.413513514,2.04932432 C0.413513514,2.02326255 0.413513514,2.02326255 0.440096525,1.99720077 C0.440096525,1.97200772 0.440096525,1.97200772 0.467027027,1.94507722 C0.520366795,1.84083012 0.627393822,1.76403475 0.680559846,1.68637066 C0.707316602,1.66048263 0.707316602,1.66048263 0.707316602,1.6342471 L0.707316602,1.61096525 C0.733899614,1.58525097 0.733899614,1.5334749 0.760482625,1.50671815 C0.760482625,1.4815251 0.787413127,1.42940154 0.787413127,1.40368726 C0.787413127,1.35156371 0.787413127,1.32602317 0.760482625,1.27476834 C0.733552124,1.19675676 0.717393822,1.12951737 0.664054054,1.07756757 C0.423590734,1.41393822 0.28007722,1.79131274 0.28007722,2.23054054 C0.276843065,2.80318012 0.5244444,3.34853793 0.957683398,3.72301158 C0.957683398,3.72301158 0.975057915,3.73030888 0.975057915,3.70563707 L0.975057915,3.6792278 C0.975057915,3.65351351 1.00164093,3.65351351 1.00164093,3.62710425 C1.02857143,3.52285714 1.02857143,3.36857143 1.02857143,3.2653668 L1.0277027,3.26640927 Z" id="Shape" fill="#AAD400" fill-rule="nonzero"></path>
                    <path d="M2.2427027,4.48523166 C1.0061583,4.48523166 0,3.47907336 0,2.2427027 C0,1.00633205 1.0061583,0 2.2427027,0 C3.4792471,0 4.48523166,1.0061583 4.48523166,2.2427027 C4.48523166,3.4792471 3.47907336,4.48523166 2.2427027,4.48523166 Z M2.2427027,0.280598456 C1.44888605,0.280387627 0.733122995,0.758427551 0.42922888,1.49177146 C0.125334765,2.22511537 0.293168821,3.0693136 0.854457126,3.63065161 C1.41574543,4.19198962 2.25992879,4.35989844 2.99329961,4.05606926 C3.72667043,3.75224009 4.20477374,3.03651937 4.2046332,2.2427027 C4.20338911,1.15958972 3.32581532,0.281782778 2.2427027,0.280250965 L2.2427027,0.280598456 Z" id="Shape" fill="#000000" fill-rule="nonzero" opacity="0.2"></path>
                </g>
            </g>
        </g>
    </g>
</svg>