<svg xmlns="http://www.w3.org/2000/svg" viewBox="0 0 59 37"><defs><style>.cls-1{fill:#fff;}.cls-2{fill:#ff8700;}.cls-3{fill:none;}</style></defs><title>BackendLogo-Development</title><g id="Ebene_2" data-name="Ebene 2"><g id="Ebene_1-2" data-name="Ebene 1"><path class="cls-1" d="M38.49,28.87A15.76,15.76,0,0,1,38.23,32a5,5,0,0,1-.76,1.93,2.65,2.65,0,0,1-1.27,1,5.13,5.13,0,0,1-1.74.27l-1,0-1.05-.06L31.24,35V23.1L32.4,23l1-.06.87,0a6.77,6.77,0,0,1,1.81.22,2.6,2.6,0,0,1,1.33.87,4.44,4.44,0,0,1,.82,1.8A13.35,13.35,0,0,1,38.49,28.87ZM36.12,29A19.56,19.56,0,0,0,36,26.82a4.44,4.44,0,0,0-.27-1.2.9.9,0,0,0-.46-.52,1.82,1.82,0,0,0-.67-.11h-.43l-.33,0-.29,0v8l.25,0,.32,0h.46a1.22,1.22,0,0,0,.68-.19,1.34,1.34,0,0,0,.48-.65A4.91,4.91,0,0,0,36,31,19.75,19.75,0,0,0,36.12,29Z"/><path class="cls-1" d="M40.53,35V23.1h6.09v1.84H42.86v3h3.33v1.82H42.86v3.4h3.76V35Z"/><path class="cls-1" d="M53.85,35H50.27L47.89,23.1h2.45l1.79,10.23L54,23.1h2.28Z"/><path class="cls-2" d="M27.64,25.5a5.08,5.08,0,0,1-1.56.22c-4.7,0-11.6-16.42-11.6-21.89,0-2,.48-2.68,1.15-3.26C9.88,1.24,3,3.36.77,6A5.37,5.37,0,0,0,0,9.11C0,17.64,9.11,37,15.53,37c3,0,8-4.88,12.11-11.5M24.64,0c5.94,0,11.89,1,11.89,4.31,0,6.81-4.32,15.05-6.52,15.05-3.93,0-8.82-10.93-8.82-16.4,0-2.49,1-3,3.45-3"/><rect class="cls-3" width="59" height="37"/></g></g></svg>