<?xml version="1.0" encoding="utf-8"?>
<!-- Generator: Adobe Illustrator 18.1.1, SVG Export Plug-In . SVG Version: 6.00 Build 0)  -->
<svg version="1.1" id="Ebene_1" xmlns="http://www.w3.org/2000/svg" xmlns:xlink="http://www.w3.org/1999/xlink" x="0px" y="0px"
	 viewBox="240 0 800 800" enable-background="new 240 0 800 800" xml:space="preserve">
<rect x="290" y="50" fill="#999999" width="700" height="700"/>
<path fill="#FFFFFF" d="M340,100h600v600H340V100z"/>
<path fill="#999999" d="M490,200h300v270H490V200z"/>
<path fill="#666666" d="M372.6,327c-3.4,4.4-3.5,11.5,0,16l60.8,78.7c3.4,4.4,8.6,4.4,12,0l12-15.6c3.4-4.4,3.4-11.1,0-15.6
	L414.5,335l42.9-55.6c3.4-4.4,3.4-11.1,0-15.6l-12-15.6c-3.4-4.4-8.6-4.4-12,0L372.6,327z"/>
<path fill="#666666" d="M907.4,343c3.4-4.4,3.5-11.5,0-16l-60.8-78.7c-3.4-4.4-8.6-4.4-12,0l-12,15.6c-3.4,4.4-3.4,11.1,0,15.6
	l42.9,55.6l-42.9,55.6c-3.4,4.4-3.4,11.1,0,15.6l12,15.6c3.4,4.4,8.6,4.4,12,0L907.4,343z"/>
<circle fill="#666666" cx="520" cy="560" r="30"/>
<circle fill="#666666" cx="640" cy="560" r="30"/>
<circle fill="#666666" cx="760" cy="560" r="30"/>
</svg>
