<?xml version="1.0" standalone="no"?>
<!DOCTYPE svg PUBLIC "-//W3C//DTD SVG 20010904//EN"
 "http://www.w3.org/TR/2001/REC-SVG-20010904/DTD/svg10.dtd">
<svg version="1.0" xmlns="http://www.w3.org/2000/svg"
 width="700.000000pt" height="700.000000pt" viewBox="0 0 700.000000 700.000000"
 preserveAspectRatio="xMidYMid meet">
<metadata>
Created by potrace 1.11, written by Peter Selinger 2001-2013
</metadata>
<g transform="translate(0.000000,700.000000) scale(0.100000,-0.100000)"
fill="#000000" stroke="none">
<path d="M4530 6987 c-3 -3 -36 -8 -73 -12 -119 -11 -239 -64 -291 -126 -57
-67 -92 -164 -101 -279 -10 -121 -5 -334 10 -412 2 -9 6 -38 10 -65 89 -645
431 -1522 821 -2105 286 -427 589 -667 824 -653 80 5 147 44 254 149 307 301
612 905 807 1601 22 77 42 153 44 168 3 16 15 67 25 114 25 106 60 322 76 463
19 177 21 390 5 460 -45 190 -215 348 -496 463 -107 44 -286 98 -410 123 -72
15 -214 40 -277 49 -95 13 -109 15 -253 31 -16 1 -75 6 -130 9 -55 3 -113 8
-130 11 -42 6 -709 16 -715 11z"/>
<path d="M2855 6864 c-44 -7 -100 -15 -125 -18 -25 -4 -72 -12 -105 -17 -33
-6 -71 -12 -85 -14 -126 -17 -593 -125 -840 -195 -399 -113 -849 -296 -1088
-441 -35 -21 -66 -39 -68 -39 -2 0 -41 -27 -86 -60 -243 -175 -327 -290 -377
-515 -32 -145 -35 -419 -6 -640 16 -122 25 -187 29 -207 3 -13 8 -39 11 -58 2
-19 7 -46 10 -60 3 -14 10 -47 16 -75 6 -27 12 -54 13 -60 1 -5 8 -37 15 -70
13 -56 30 -127 80 -316 95 -364 340 -1041 520 -1434 15 -33 41 -89 56 -125 57
-129 296 -598 388 -760 271 -478 531 -856 781 -1135 441 -493 812 -686 1150
-600 221 55 521 243 810 504 63 58 303 298 376 377 222 241 538 653 768 999
83 126 157 236 163 243 18 22 5 23 -67 6 -103 -24 -245 -26 -324 -5 -199 54
-408 228 -653 545 -40 51 -79 103 -87 116 -8 12 -33 48 -55 79 -22 31 -45 66
-52 76 -7 11 -44 71 -83 133 -38 61 -70 114 -70 116 0 2 -30 55 -66 117 -196
338 -456 904 -629 1368 -110 296 -258 765 -279 881 -2 14 -13 61 -25 105 -22
88 -57 277 -69 370 -7 62 -9 353 -3 415 16 148 69 273 150 357 23 23 41 45 41
48 0 7 -33 4 -135 -11z"/>
</g>
</svg>
