<?xml version="1.0" encoding="utf-8"?>
<!-- Generator: Adobe Illustrator 18.1.1, SVG Export Plug-In . SVG Version: 6.00 Build 0)  -->
<svg version="1.1" id="Ebene_1" xmlns="http://www.w3.org/2000/svg" xmlns:xlink="http://www.w3.org/1999/xlink" x="0px" y="0px"
	 viewBox="240 0 800 800" enable-background="new 240 0 800 800" xml:space="preserve">
<rect x="290" y="50" fill="#999999" width="700" height="700"/>
<path fill="#FFFFFF" d="M340,100h600v600H340V100z"/>
<path fill="#666666" d="M370,130h60v540h-60V130z"/>
<path fill="#666666" d="M850,130h60v540h-60V130z"/>
<g>
	<path fill="#999999" d="M460,350h100v100H460V350z"/>
	<path fill="#FFFFFF" d="M480,370h60v60h-60V370z"/>
</g>
<g>
	<path fill="#999999" d="M590,350h100v100H590V350z"/>
	<path fill="#FFFFFF" d="M610,370h60v60h-60V370z"/>
</g>
<g>
	<path fill="#999999" d="M720,350h100v100H720V350z"/>
	<path fill="#FFFFFF" d="M740,370h60v60h-60V370z"/>
</g>
</svg>
